%TF.GenerationSoftware,KiCad,Pcbnew,7.0.5*%
%TF.CreationDate,2025-09-10T14:00:20-04:00*%
%TF.ProjectId,PWA_REV2,5057415f-5245-4563-922e-6b696361645f,2.0*%
%TF.SameCoordinates,Original*%
%TF.FileFunction,Soldermask,Bot*%
%TF.FilePolarity,Negative*%
%FSLAX46Y46*%
G04 Gerber Fmt 4.6, Leading zero omitted, Abs format (unit mm)*
G04 Created by KiCad (PCBNEW 7.0.5) date 2025-09-10 14:00:20*
%MOMM*%
%LPD*%
G01*
G04 APERTURE LIST*
G04 Aperture macros list*
%AMRoundRect*
0 Rectangle with rounded corners*
0 $1 Rounding radius*
0 $2 $3 $4 $5 $6 $7 $8 $9 X,Y pos of 4 corners*
0 Add a 4 corners polygon primitive as box body*
4,1,4,$2,$3,$4,$5,$6,$7,$8,$9,$2,$3,0*
0 Add four circle primitives for the rounded corners*
1,1,$1+$1,$2,$3*
1,1,$1+$1,$4,$5*
1,1,$1+$1,$6,$7*
1,1,$1+$1,$8,$9*
0 Add four rect primitives between the rounded corners*
20,1,$1+$1,$2,$3,$4,$5,0*
20,1,$1+$1,$4,$5,$6,$7,0*
20,1,$1+$1,$6,$7,$8,$9,0*
20,1,$1+$1,$8,$9,$2,$3,0*%
G04 Aperture macros list end*
%ADD10R,2.200000X2.200000*%
%ADD11C,2.200000*%
%ADD12C,0.800000*%
%ADD13C,7.000000*%
%ADD14C,0.650000*%
%ADD15O,1.000000X2.100000*%
%ADD16O,1.000000X1.600000*%
%ADD17RoundRect,0.200000X0.450000X-0.200000X0.450000X0.200000X-0.450000X0.200000X-0.450000X-0.200000X0*%
%ADD18O,1.300000X0.800000*%
%ADD19R,1.700000X1.700000*%
%ADD20O,1.700000X1.700000*%
%ADD21O,1.600000X1.600000*%
%ADD22C,1.800000*%
%ADD23C,3.250000*%
%ADD24R,1.520000X1.520000*%
%ADD25C,1.520000*%
%ADD26RoundRect,0.250000X0.625000X-0.350000X0.625000X0.350000X-0.625000X0.350000X-0.625000X-0.350000X0*%
%ADD27O,1.750000X1.200000*%
%ADD28C,2.000000*%
%ADD29C,4.000000*%
%ADD30R,1.600000X1.600000*%
%ADD31C,1.600000*%
%ADD32R,0.850000X0.850000*%
%ADD33O,0.850000X0.850000*%
%ADD34O,3.500000X3.500000*%
%ADD35R,2.000000X1.905000*%
%ADD36O,2.000000X1.905000*%
%ADD37R,2.000000X2.000000*%
%ADD38C,1.440000*%
%ADD39C,1.524000*%
%ADD40R,3.048000X1.850000*%
%ADD41O,3.048000X1.850000*%
%ADD42R,1.524000X1.524000*%
%ADD43R,2.500000X3.000000*%
%TA.AperFunction,Profile*%
%ADD44C,0.050000*%
%TD*%
%TA.AperFunction,Profile*%
%ADD45C,0.120000*%
%TD*%
G04 APERTURE END LIST*
D10*
%TO.C,S101*%
X90020000Y-46264000D03*
D11*
X96520000Y-46264000D03*
X90020000Y-50764000D03*
X96520000Y-50764000D03*
%TD*%
D12*
%TO.C,H101*%
X58335000Y-22860000D03*
X59103845Y-21003845D03*
X59103845Y-24716155D03*
X60960000Y-20235000D03*
D13*
X60960000Y-22860000D03*
D12*
X60960000Y-25485000D03*
X62816155Y-21003845D03*
X62816155Y-24716155D03*
X63585000Y-22860000D03*
%TD*%
%TO.C,H102*%
X185335000Y-22860000D03*
X186103845Y-21003845D03*
X186103845Y-24716155D03*
X187960000Y-20235000D03*
D13*
X187960000Y-22860000D03*
D12*
X187960000Y-25485000D03*
X189816155Y-21003845D03*
X189816155Y-24716155D03*
X190585000Y-22860000D03*
%TD*%
%TO.C,H104*%
X185335000Y-96520000D03*
X186103845Y-94663845D03*
X186103845Y-98376155D03*
X187960000Y-93895000D03*
D13*
X187960000Y-96520000D03*
D12*
X187960000Y-99145000D03*
X189816155Y-94663845D03*
X189816155Y-98376155D03*
X190585000Y-96520000D03*
%TD*%
D14*
%TO.C,J501*%
X105314000Y-96460000D03*
X111094000Y-96460000D03*
D15*
X103884000Y-95930000D03*
D16*
X103884000Y-100110000D03*
D15*
X112524000Y-95930000D03*
D16*
X112524000Y-100110000D03*
%TD*%
D17*
%TO.C,J601*%
X140970000Y-64262000D03*
D18*
X140970000Y-63012000D03*
%TD*%
D19*
%TO.C,J102*%
X89149000Y-99568000D03*
D20*
X91689000Y-99568000D03*
%TD*%
D12*
%TO.C,H103*%
X58335000Y-96520000D03*
X59103845Y-94663845D03*
X59103845Y-98376155D03*
X60960000Y-93895000D03*
D13*
X60960000Y-96520000D03*
D12*
X60960000Y-99145000D03*
X62816155Y-94663845D03*
X62816155Y-98376155D03*
X63585000Y-96520000D03*
%TD*%
D21*
%TO.C,J101*%
X175260000Y-99420000D03*
D22*
X175260000Y-95020000D03*
%TD*%
D23*
%TO.C,J401*%
X149220000Y-96520000D03*
X159380000Y-96520000D03*
D24*
X151130000Y-87630000D03*
D25*
X152400000Y-90170000D03*
X153670000Y-87630000D03*
X154940000Y-90170000D03*
X156210000Y-87630000D03*
X157480000Y-90170000D03*
%TD*%
D19*
%TO.C,J603*%
X92979000Y-74209710D03*
D20*
X95519000Y-74209710D03*
X98059000Y-74209710D03*
X100599000Y-74209710D03*
X103139000Y-74209710D03*
X105679000Y-74209710D03*
X108219000Y-74209710D03*
X110759000Y-74209710D03*
X110759000Y-56429710D03*
X108219000Y-56429710D03*
X105679000Y-56429710D03*
X103139000Y-56429710D03*
X100599000Y-56429710D03*
X98059000Y-56429710D03*
X95519000Y-56429710D03*
X92979000Y-56429710D03*
%TD*%
D26*
%TO.C,J604*%
X145754000Y-65516000D03*
D27*
X145754000Y-63516000D03*
%TD*%
D28*
%TO.C,TP102*%
X177800000Y-83566000D03*
%TD*%
%TO.C,TP105*%
X188976000Y-87630000D03*
%TD*%
%TO.C,TP101*%
X189230000Y-29972000D03*
%TD*%
D29*
%TO.C,J701*%
X117850000Y-90701000D03*
X142850000Y-90701000D03*
D30*
X135890000Y-89281000D03*
D31*
X133120000Y-89281000D03*
X130350000Y-89281000D03*
X127580000Y-89281000D03*
X124810000Y-89281000D03*
X134505000Y-92121000D03*
X131735000Y-92121000D03*
X128965000Y-92121000D03*
X126195000Y-92121000D03*
%TD*%
D28*
%TO.C,TP204*%
X117348000Y-84836000D03*
%TD*%
%TO.C,TP303*%
X141605000Y-84963000D03*
%TD*%
%TO.C,TP104*%
X58420000Y-28194000D03*
%TD*%
%TO.C,TP402*%
X135890000Y-30480000D03*
%TD*%
%TO.C,TP301*%
X165100000Y-83566000D03*
%TD*%
D32*
%TO.C,J106*%
X119634000Y-40940000D03*
D33*
X119634000Y-39940000D03*
X119634000Y-38940000D03*
X119634000Y-37940000D03*
X119634000Y-36940000D03*
X119634000Y-35940000D03*
X119634000Y-34940000D03*
X119634000Y-33940000D03*
X119634000Y-32940000D03*
X119634000Y-31940000D03*
X119634000Y-30940000D03*
X119634000Y-29940000D03*
X119634000Y-28940000D03*
X119634000Y-27940000D03*
%TD*%
D28*
%TO.C,TP306*%
X171450000Y-56134000D03*
%TD*%
D34*
%TO.C,U101*%
X173545000Y-66040000D03*
D35*
X190205000Y-68580000D03*
D36*
X190205000Y-66040000D03*
X190205000Y-63500000D03*
%TD*%
D19*
%TO.C,J602*%
X75438000Y-98278000D03*
D20*
X72898000Y-98278000D03*
%TD*%
D32*
%TO.C,J104*%
X97028000Y-28004000D03*
D33*
X97028000Y-29004000D03*
X97028000Y-30004000D03*
X97028000Y-31004000D03*
X97028000Y-32004000D03*
X97028000Y-33004000D03*
X97028000Y-34004000D03*
X97028000Y-35004000D03*
X97028000Y-36004000D03*
X97028000Y-37004000D03*
X97028000Y-38004000D03*
X97028000Y-39004000D03*
X97028000Y-40004000D03*
X97028000Y-41004000D03*
%TD*%
D19*
%TO.C,J103*%
X165867000Y-93472000D03*
D20*
X163327000Y-93472000D03*
%TD*%
D28*
%TO.C,TP405*%
X180086000Y-32766000D03*
%TD*%
%TO.C,+5esp32*%
X170856000Y-51816000D03*
%TD*%
%TO.C,TP202*%
X99314000Y-98806000D03*
%TD*%
D32*
%TO.C,J107*%
X104394000Y-45768000D03*
D33*
X105394000Y-45768000D03*
X106394000Y-45768000D03*
X107394000Y-45768000D03*
X108394000Y-45768000D03*
X109394000Y-45768000D03*
X110394000Y-45768000D03*
X111394000Y-45768000D03*
X112394000Y-45768000D03*
X113394000Y-45768000D03*
%TD*%
D28*
%TO.C,TP100*%
X100330000Y-49022000D03*
%TD*%
%TO.C,TP109*%
X76708000Y-28956000D03*
%TD*%
%TO.C,TP302*%
X165100000Y-87376000D03*
%TD*%
%TO.C,TP108*%
X122555000Y-67310000D03*
%TD*%
%TO.C,TP201*%
X95504000Y-98806000D03*
%TD*%
%TO.C,TP403*%
X135636000Y-38100000D03*
%TD*%
%TO.C,TP203*%
X115951000Y-73025000D03*
%TD*%
%TO.C,TP103*%
X190500000Y-49530000D03*
%TD*%
%TO.C,TP205*%
X88265000Y-83439000D03*
%TD*%
%TO.C,TP106*%
X66802000Y-97790000D03*
%TD*%
%TO.C,TP404*%
X146304000Y-45974000D03*
%TD*%
%TO.C,TP206*%
X127254000Y-67310000D03*
%TD*%
%TO.C,TP401*%
X158750000Y-30480000D03*
%TD*%
%TO.C,TP501*%
X88900000Y-78740000D03*
%TD*%
%TO.C,TP305*%
X144780000Y-80772000D03*
%TD*%
%TO.C,TP304*%
X164719000Y-98933000D03*
%TD*%
D10*
%TO.C,S102*%
X119686000Y-46264000D03*
D11*
X126186000Y-46264000D03*
X119686000Y-50764000D03*
X126186000Y-50764000D03*
%TD*%
D37*
%TO.C,D202*%
X71120000Y-59690000D03*
D28*
X71120000Y-62230000D03*
%TD*%
D37*
%TO.C,D203*%
X71120000Y-46990000D03*
D28*
X71120000Y-49530000D03*
%TD*%
D37*
%TO.C,D201*%
X71120000Y-72390000D03*
D28*
X71120000Y-74930000D03*
%TD*%
D37*
%TO.C,D204*%
X71120000Y-34290000D03*
D28*
X71120000Y-36830000D03*
%TD*%
D37*
%TO.C,D205*%
X71120000Y-21590000D03*
D28*
X71120000Y-24130000D03*
%TD*%
D37*
%TO.C,D105*%
X186690000Y-54610000D03*
D28*
X189230000Y-54610000D03*
%TD*%
D38*
%TO.C,RV301*%
X182880000Y-41275000D03*
X185420000Y-38735000D03*
X187960000Y-41275000D03*
%TD*%
D19*
%TO.C,U303*%
X166000000Y-23300000D03*
D20*
X163460000Y-23300000D03*
X160920000Y-23300000D03*
X158380000Y-23300000D03*
X155840000Y-23300000D03*
X153300000Y-23300000D03*
X150760000Y-23300000D03*
X148220000Y-23300000D03*
X145680000Y-23300000D03*
X143140000Y-23300000D03*
X140600000Y-23300000D03*
X138060000Y-23300000D03*
X135520000Y-23300000D03*
X132980000Y-23300000D03*
X130440000Y-23300000D03*
X127900000Y-23300000D03*
%TD*%
D39*
%TO.C,S601*%
X87730000Y-95900000D03*
X87730000Y-86900000D03*
D40*
X93980000Y-88900000D03*
D41*
X81480000Y-88900000D03*
X93980000Y-93900000D03*
X81480000Y-93900000D03*
%TD*%
D42*
%TO.C,U302*%
X166000000Y-23300000D03*
D39*
X163460000Y-23300000D03*
X160920000Y-23300000D03*
X158380000Y-23300000D03*
X155840000Y-23300000D03*
X153300000Y-23300000D03*
X150760000Y-23300000D03*
X148220000Y-23300000D03*
X145680000Y-23300000D03*
X143140000Y-23300000D03*
X140600000Y-23300000D03*
X138060000Y-23300000D03*
X135520000Y-23300000D03*
X132980000Y-23300000D03*
X130440000Y-23300000D03*
X127900000Y-23300000D03*
D29*
X173500000Y-23300000D03*
X173500000Y-78300000D03*
X80500000Y-78300000D03*
X80500000Y-23300000D03*
%TD*%
D37*
%TO.C,SW101*%
X73620000Y-93864000D03*
D28*
X68620000Y-93864000D03*
X71120000Y-93864000D03*
D43*
X65520000Y-86364000D03*
X76720000Y-86364000D03*
D28*
X73620000Y-79364000D03*
X68620000Y-79364000D03*
%TD*%
D44*
X55880000Y-17780000D02*
X55880000Y-101600000D01*
X55880000Y-101600000D02*
X193040000Y-101600000D01*
X55880000Y-17780000D02*
X84074000Y-17780000D01*
X86106000Y-24257000D02*
X124764800Y-24257000D01*
X126796800Y-17780000D02*
X193040000Y-17780000D01*
X125780800Y-18796000D02*
X125780800Y-23241000D01*
X126796800Y-17780000D02*
G75*
G03*
X125780800Y-18796000I0J-1016000D01*
G01*
X193040000Y-101600000D02*
X193040000Y-17780000D01*
X85090000Y-23241000D02*
G75*
G03*
X86106000Y-24257000I1016000J0D01*
G01*
X124764800Y-24257000D02*
G75*
G03*
X125780800Y-23241000I0J1016000D01*
G01*
X85090000Y-18796000D02*
X85090000Y-23241000D01*
X85090000Y-18796000D02*
G75*
G03*
X84074000Y-17780000I-1016000J0D01*
G01*
D45*
%TO.C,T102*%
X57980000Y-93218000D02*
G75*
G03*
X57980000Y-93218000I-576000J0D01*
G01*
%TO.C,T103*%
X185361000Y-27305000D02*
G75*
G03*
X185361000Y-27305000I-576000J0D01*
G01*
%TO.C,T101*%
X65854000Y-19050000D02*
G75*
G03*
X65854000Y-19050000I-576000J0D01*
G01*
%TD*%
M02*
