M48
; DRILL file {KiCad 7.0.5} date Fri Sep 19 13:44:32 2025
; FORMAT={-:-/ absolute / inch / decimal}
; #@! TF.CreationDate,2025-09-19T13:44:32-04:00
; #@! TF.GenerationSoftware,Kicad,Pcbnew,7.0.5
; #@! TF.FileFunction,MixedPlating,1,2
FMAT,2
INCH
; #@! TA.AperFunction,Plated,PTH,ComponentDrill
T1C0.0079
; #@! TA.AperFunction,Plated,PTH,ViaDrill
T2C0.0157
; #@! TA.AperFunction,Plated,PTH,ViaDrill
T3C0.0170
; #@! TA.AperFunction,Plated,PTH,ComponentDrill
T4C0.0197
; #@! TA.AperFunction,Plated,PTH,ComponentDrill
T5C0.0236
; #@! TA.AperFunction,Plated,PTH,ComponentDrill
T6C0.0295
; #@! TA.AperFunction,Plated,PTH,ComponentDrill
T7C0.0299
; #@! TA.AperFunction,Plated,PTH,ComponentDrill
T8C0.0315
; #@! TA.AperFunction,Plated,PTH,ComponentDrill
T9C0.0394
; #@! TA.AperFunction,Plated,PTH,ComponentDrill
T10C0.0400
; #@! TA.AperFunction,Plated,PTH,ComponentDrill
T11C0.0433
; #@! TA.AperFunction,Plated,PTH,ComponentDrill
T12C0.0472
; #@! TA.AperFunction,Plated,PTH,ComponentDrill
T13C0.0512
; #@! TA.AperFunction,Plated,PTH,ViaDrill
T14C0.0625
; #@! TA.AperFunction,Plated,PTH,ComponentDrill
T15C0.0787
; #@! TA.AperFunction,Plated,PTH,ComponentDrill
T16C0.1260
; #@! TA.AperFunction,Plated,PTH,ComponentDrill
T17C0.1329
; #@! TA.AperFunction,Plated,PTH,ComponentDrill
T18C0.1378
; #@! TA.AperFunction,NonPlated,NPTH,ComponentDrill
T19C0.0256
; #@! TA.AperFunction,NonPlated,NPTH,ComponentDrill
T20C0.0630
; #@! TA.AperFunction,NonPlated,NPTH,ComponentDrill
T21C0.0709
; #@! TA.AperFunction,NonPlated,NPTH,ComponentDrill
T22C0.1280
; #@! TA.AperFunction,NonPlated,NPTH,ComponentDrill
T23C0.1378
%
G90
G05
T1
X4.1558Y-1.2968
X4.1558Y-1.3519
X4.1834Y-1.2693
X4.1834Y-1.3244
X4.1834Y-1.3795
X4.21Y-1.2968
X4.21Y-1.3519
X4.2385Y-1.2693
X4.2385Y-1.3244
X4.2385Y-1.3795
X4.2661Y-1.2968
X4.2661Y-1.3519
T2
X2.2467Y-2.91
X2.31Y-2.8968
X2.41Y-2.73
X2.4831Y-3.2169
X2.5Y-3.27
X2.6Y-2.01
X2.62Y-2.69
X2.62Y-2.905
X2.65Y-1.25
X2.67Y-3.48
X2.725Y-0.915
X2.74Y-3.07
X2.75Y-3.94
X2.76Y-3.78
X2.8Y-3.61
X2.8434Y-1.0301
X2.85Y-2.525
X2.875Y-2.0
X2.94Y-3.4
X2.9477Y-1.5219
X2.96Y-1.62
X3.02Y-1.48
X3.07Y-1.52
X3.07Y-1.8
X3.0995Y-3.9014
X3.11Y-1.54
X3.12Y-1.8
X3.13Y-2.42
X3.14Y-1.68
X3.16Y-1.33
X3.18Y-3.57
X3.2Y-1.47
X3.275Y-3.2
X3.2864Y-3.8282
X3.2922Y-1.4685
X3.3Y-0.74
X3.32Y-2.45
X3.325Y-3.425
X3.35Y-1.91
X3.46Y-1.225
X3.47Y-2.31
X3.49Y-2.99
X3.5Y-1.0
X3.5098Y-3.84
X3.525Y-3.45
X3.53Y-1.7167
X3.55Y-3.355
X3.56Y-1.47
X3.6534Y-3.2079
X3.72Y-3.095
X3.74Y-3.41
X3.75Y-3.22
X3.92Y-3.1016
X3.945Y-3.27
X3.955Y-3.035
X3.98Y-3.45
X4.005Y-3.12
X4.005Y-3.63
X4.01Y-3.87
X4.04Y-3.215
X4.05Y-3.455
X4.0764Y-3.9283
X4.08Y-1.87
X4.125Y-3.25
X4.135Y-2.62
X4.1465Y-3.1919
X4.1837Y-3.6472
X4.1896Y-3.2272
X4.2263Y-2.6863
X4.24Y-3.6766
X4.26Y-3.01
X4.2873Y-3.6537
X4.2954Y-3.2494
X4.3Y-2.79
X4.3184Y-3.6746
X4.32Y-1.95
X4.33Y-3.2776
X4.345Y-3.195
X4.35Y-3.43
X4.3626Y-3.228
X4.4012Y-2.6612
X4.41Y-3.1
X4.44Y-3.23
X4.475Y-3.7
X4.4798Y-2.3663
X4.4849Y-2.4096
X4.49Y-3.1
X4.519Y-2.9586
X4.5221Y-2.4136
X4.555Y-3.255
X4.585Y-2.42
X4.6Y-2.105
X4.6Y-3.18
X4.6336Y-2.1486
X4.64Y-2.475
X4.64Y-2.79
X4.69Y-2.175
X4.74Y-1.69
X4.75Y-2.2793
X4.75Y-3.41
X4.77Y-3.07
X4.78Y-1.08
X4.82Y-1.3
X4.905Y-2.2
X4.91Y-1.8961
X4.9133Y-2.7366
X4.92Y-2.815
X4.9345Y-2.4482
X4.945Y-2.56
X4.95Y-1.4191
X4.97Y-1.3
X4.97Y-2.4631
X4.9859Y-1.9175
X5.0228Y-3.43
X5.0318Y-2.4666
X5.055Y-2.53
X5.0616Y-3.4302
X5.085Y-2.14
X5.1Y-1.62
X5.11Y-3.15
X5.1142Y-1.2342
X5.1422Y-2.1999
X5.1459Y-3.44
X5.15Y-2.515
X5.155Y-2.725
X5.1741Y-2.2301
X5.175Y-1.0
X5.18Y-2.4443
X5.19Y-1.32
X5.19Y-3.15
X5.1959Y-3.43
X5.2018Y-2.0713
X5.2135Y-2.2009
X5.22Y-1.19
X5.22Y-2.01
X5.2209Y-2.4608
X5.2341Y-3.44
X5.25Y-2.74
X5.2828Y-2.2011
X5.29Y-2.54
X5.3Y-1.1
X5.325Y-2.075
X5.35Y-2.27
X5.36Y-1.84
X5.3662Y-2.4661
X5.37Y-2.73
X5.39Y-2.86
X5.4Y-1.32
X5.4Y-3.26
X5.41Y-3.13
X5.47Y-1.22
X5.47Y-2.63
X5.48Y-3.09
X5.49Y-1.56
X5.4927Y-2.5173
X5.5Y-2.47
X5.53Y-1.41
X5.53Y-1.87
X5.54Y-3.01
X5.5569Y-3.1
X5.5718Y-3.172
X5.575Y-1.025
X5.6Y-2.21
X5.6Y-2.7
X5.65Y-1.76
X5.67Y-1.88
X5.68Y-2.42
X5.6882Y-2.7317
X5.69Y-2.02
X5.7184Y-2.2868
X5.72Y-1.64
X5.7271Y-2.1127
X5.73Y-1.98
X5.748Y-2.2269
X5.7577Y-2.3756
X5.7694Y-2.1059
X5.78Y-2.07
X5.78Y-3.34
X5.7971Y-2.3687
X5.8Y-1.285
X5.8Y-1.53
X5.8266Y-2.7015
X5.8278Y-2.7389
X5.8286Y-2.3159
X5.8399Y-2.0381
X5.84Y-2.52
X5.84Y-2.97
X5.85Y-2.86
X5.8531Y-1.6031
X5.87Y-1.175
X5.874Y-2.2705
X5.8745Y-2.0145
X5.877Y-3.348
X5.8962Y-2.2038
X5.93Y-1.93
X5.95Y-2.15
X5.95Y-3.375
X5.97Y-2.89
X5.9749Y-2.0441
X5.9775Y-2.4399
X5.9895Y-2.1993
X5.99Y-1.68
X6.015Y-2.965
X6.05Y-3.15
X6.05Y-3.34
X6.06Y-3.06
X6.1337Y-2.9137
X6.14Y-2.8
X6.1405Y-2.58
X6.1605Y-2.49
X6.17Y-3.299
X6.17Y-3.14
X6.1894Y-1.67
X6.2096Y-2.9585
X6.2305Y-2.35
X6.25Y-3.05
X6.2505Y-2.52
X6.2505Y-2.58
X6.2566Y-1.9
X6.2605Y-2.69
X6.2641Y-1.45
X6.29Y-1.02
X6.3Y-3.25
X6.309Y-3.3958
X6.3112Y-2.8912
X6.3138Y-1.8517
X6.325Y-3.55
X6.33Y-2.24
X6.3371Y-1.702
X6.3805Y-2.52
X6.3925Y-3.4675
X6.42Y-2.96
X6.4205Y-2.24
X6.4266Y-1.65
X6.43Y-3.6
X6.53Y-3.59
X6.5305Y-2.29
X6.55Y-1.025
X6.55Y-2.25
X6.5866Y-1.1634
X6.6305Y-2.46
X6.6366Y-1.72
X6.95Y-2.025
X6.96Y-2.34
X6.975Y-1.025
X7.09Y-2.89
X7.15Y-1.075
X7.29Y-1.2
X7.33Y-3.2
X7.37Y-2.41
X7.51Y-2.83
X7.51Y-3.01
T3
X2.88Y-2.23
X3.01Y-2.09
X3.3477Y-1.1672
X3.6643Y-1.6557
T4
X2.2967Y-0.9
X2.2967Y-3.8
X2.3269Y-0.8269
X2.3269Y-0.9731
X2.3269Y-3.7269
X2.3269Y-3.8731
X2.4Y-0.7967
X2.4Y-1.0033
X2.4Y-3.6967
X2.4Y-3.9033
X2.4731Y-0.8269
X2.4731Y-0.9731
X2.4731Y-3.7269
X2.4731Y-3.8731
X2.5033Y-0.9
X2.5033Y-3.8
X3.82Y-1.1025
X3.82Y-1.1419
X3.82Y-1.1813
X3.82Y-1.2206
X3.82Y-1.26
X3.82Y-1.2994
X3.82Y-1.3387
X3.82Y-1.3781
X3.82Y-1.4175
X3.82Y-1.4569
X3.82Y-1.4962
X3.82Y-1.5356
X3.82Y-1.575
X3.82Y-1.6143
X4.11Y-1.8019
X4.1494Y-1.8019
X4.1887Y-1.8019
X4.2281Y-1.8019
X4.2675Y-1.8019
X4.3069Y-1.8019
X4.3462Y-1.8019
X4.3856Y-1.8019
X4.425Y-1.8019
X4.4643Y-1.8019
X4.71Y-1.1
X4.71Y-1.1394
X4.71Y-1.1787
X4.71Y-1.2181
X4.71Y-1.2575
X4.71Y-1.2969
X4.71Y-1.3362
X4.71Y-1.3756
X4.71Y-1.415
X4.71Y-1.4543
X4.71Y-1.4937
X4.71Y-1.5331
X4.71Y-1.5724
X4.71Y-1.6118
X5.55Y-2.4808
X5.55Y-2.53
X7.2967Y-0.9
X7.2967Y-3.8
X7.3269Y-0.8269
X7.3269Y-0.9731
X7.3269Y-3.7269
X7.3269Y-3.8731
X7.4Y-0.7967
X7.4Y-1.0033
X7.4Y-3.6967
X7.4Y-3.9033
X7.4731Y-0.8269
X7.4731Y-0.9731
X7.4731Y-3.7269
X7.4731Y-3.8731
X7.5033Y-0.9
X7.5033Y-3.8
T6
X5.7383Y-2.5006
X5.7383Y-2.5794
T7
X5.95Y-3.45
X6.0Y-3.55
X6.05Y-3.45
X6.1Y-3.55
X6.15Y-3.45
X6.2Y-3.55
T8
X7.2Y-1.625
X7.3Y-1.525
X7.4Y-1.625
T9
X2.3Y-1.11
X2.63Y-3.85
X2.7016Y-3.1246
X2.7016Y-3.6954
X2.8Y-0.85
X2.8Y-0.95
X2.8Y-1.35
X2.8Y-1.45
X2.8Y-1.85
X2.8Y-1.95
X2.8Y-2.35
X2.8Y-2.45
X2.8Y-2.85
X2.8Y-2.95
X2.8Y-3.6954
X2.87Y-3.8692
X2.8984Y-3.1246
X2.8984Y-3.6954
X2.97Y-3.8692
X3.02Y-1.14
X3.475Y-3.285
X3.5Y-3.1
X3.5098Y-3.92
X3.6098Y-3.92
X3.6606Y-2.2216
X3.6606Y-2.9216
X3.76Y-3.89
X3.7606Y-2.2216
X3.7606Y-2.9216
X3.8606Y-2.2216
X3.8606Y-2.9216
X3.91Y-3.89
X3.95Y-1.93
X3.9606Y-2.2216
X3.9606Y-2.9216
X4.0606Y-2.2216
X4.0606Y-2.9216
X4.1606Y-2.2216
X4.1606Y-2.9216
X4.2606Y-2.2216
X4.2606Y-2.9216
X4.3606Y-2.2216
X4.3606Y-2.9216
X4.565Y-2.875
X4.62Y-3.34
X4.825Y-2.65
X4.9138Y-3.515
X4.9683Y-3.6268
X5.01Y-2.65
X5.0228Y-3.515
X5.0354Y-0.9173
X5.0774Y-3.6268
X5.1319Y-3.515
X5.1354Y-0.9173
X5.1864Y-3.6268
X5.2354Y-0.9173
X5.2409Y-3.515
X5.2955Y-3.6268
X5.3354Y-0.9173
X5.34Y-1.5
X5.35Y-1.2
X5.35Y-3.515
X5.4354Y-0.9173
X5.5354Y-0.9173
X5.575Y-3.345
X5.6354Y-0.9173
X5.7Y-3.18
X5.7354Y-0.9173
X5.76Y-1.81
X5.8354Y-0.9173
X5.9354Y-0.9173
X6.0354Y-0.9173
X6.1354Y-0.9173
X6.2354Y-0.9173
X6.25Y-1.2
X6.3354Y-0.9173
X6.4302Y-3.68
X6.4354Y-0.9173
X6.485Y-3.895
X6.5Y-3.29
X6.5Y-3.44
X6.5302Y-3.68
X6.5354Y-0.9173
X6.7266Y-2.04
X6.75Y-2.21
X7.0Y-3.29
X7.09Y-1.29
X7.35Y-2.15
X7.44Y-3.45
X7.45Y-1.18
X7.45Y-2.15
X7.5Y-1.95
T10
X5.0354Y-0.9173
X5.1354Y-0.9173
X5.2354Y-0.9173
X5.3354Y-0.9173
X5.4354Y-0.9173
X5.5354Y-0.9173
X5.6354Y-0.9173
X5.7354Y-0.9173
X5.8354Y-0.9173
X5.9354Y-0.9173
X6.0354Y-0.9173
X6.1354Y-0.9173
X6.2354Y-0.9173
X6.3354Y-0.9173
X6.4354Y-0.9173
X6.5354Y-0.9173
T11
X7.4884Y-2.5
X7.4884Y-2.6
X7.4884Y-2.7
T12
X3.5441Y-1.8214
X3.5441Y-1.9986
X3.8Y-1.8214
X3.8Y-1.9986
X4.712Y-1.8214
X4.712Y-1.9986
X4.968Y-1.8214
X4.968Y-1.9986
T13
X3.2079Y-3.5
X3.2079Y-3.6969
X3.7Y-3.5
X3.7Y-3.6969
T14
X6.95Y-3.6
X7.15Y-3.8
T16
X4.6398Y-3.5709
X5.624Y-3.5709
T17
X3.1693Y-0.9173
X3.1693Y-3.0827
X6.8307Y-0.9173
X6.8307Y-3.0827
T18
X2.4Y-0.9
X2.4Y-3.8
X7.4Y-0.9
X7.4Y-3.8
T19
X4.1462Y-3.7976
X4.3738Y-3.7976
T21
X3.4539Y-3.4213
X3.4539Y-3.7756
X6.9Y-3.7409
T22
X5.8748Y-3.8
X6.2748Y-3.8
T23
X6.8325Y-2.6
T5
G00X4.0899Y-3.7551
M15
G01X4.0899Y-3.7984
M16
G05
G00X4.0899Y-3.9295
M15
G01X4.0899Y-3.9531
M16
G05
G00X4.4301Y-3.7551
M15
G01X4.4301Y-3.7984
M16
G05
G00X4.4301Y-3.9295
M15
G01X4.4301Y-3.9531
M16
G05
T15
G00X2.5795Y-3.41
M15
G01X2.5795Y-3.3903
M16
G05
G00X3.0205Y-3.41
M15
G01X3.0205Y-3.3903
M16
G05
T20
G00X6.9Y-3.9142
M15
G01X6.9Y-3.9142
M16
G05
T0
M30
