%TF.GenerationSoftware,KiCad,Pcbnew,7.0.5*%
%TF.CreationDate,2025-09-10T14:00:20-04:00*%
%TF.ProjectId,PWA_REV2,5057415f-5245-4563-922e-6b696361645f,2.0*%
%TF.SameCoordinates,Original*%
%TF.FileFunction,Legend,Bot*%
%TF.FilePolarity,Positive*%
%FSLAX46Y46*%
G04 Gerber Fmt 4.6, Leading zero omitted, Abs format (unit mm)*
G04 Created by KiCad (PCBNEW 7.0.5) date 2025-09-10 14:00:20*
%MOMM*%
%LPD*%
G01*
G04 APERTURE LIST*
%ADD10C,0.120000*%
%ADD11C,0.200000*%
%ADD12C,0.150000*%
%ADD13C,0.100000*%
%TA.AperFunction,Profile*%
%ADD14C,0.050000*%
%TD*%
%TA.AperFunction,Profile*%
%ADD15C,0.120000*%
%TD*%
G04 APERTURE END LIST*
D10*
X110490000Y-99060000D02*
X110490000Y-99060000D01*
D11*
X94761279Y-83499028D02*
X94761279Y-81999028D01*
X94761279Y-81999028D02*
X94261279Y-83070457D01*
X94261279Y-83070457D02*
X93761279Y-81999028D01*
X93761279Y-81999028D02*
X93761279Y-83499028D01*
X93046993Y-81999028D02*
X93046993Y-83213314D01*
X93046993Y-83213314D02*
X92975564Y-83356171D01*
X92975564Y-83356171D02*
X92904136Y-83427600D01*
X92904136Y-83427600D02*
X92761278Y-83499028D01*
X92761278Y-83499028D02*
X92475564Y-83499028D01*
X92475564Y-83499028D02*
X92332707Y-83427600D01*
X92332707Y-83427600D02*
X92261278Y-83356171D01*
X92261278Y-83356171D02*
X92189850Y-83213314D01*
X92189850Y-83213314D02*
X92189850Y-81999028D01*
X91689849Y-81999028D02*
X90832707Y-81999028D01*
X91261278Y-83499028D02*
X91261278Y-81999028D01*
X90332707Y-82713314D02*
X89832707Y-82713314D01*
X89618421Y-83499028D02*
X90332707Y-83499028D01*
X90332707Y-83499028D02*
X90332707Y-81999028D01*
X90332707Y-81999028D02*
X89618421Y-81999028D01*
X192043279Y-59369028D02*
X192043279Y-57869028D01*
X192043279Y-57869028D02*
X191471850Y-57869028D01*
X191471850Y-57869028D02*
X191328993Y-57940457D01*
X191328993Y-57940457D02*
X191257564Y-58011885D01*
X191257564Y-58011885D02*
X191186136Y-58154742D01*
X191186136Y-58154742D02*
X191186136Y-58369028D01*
X191186136Y-58369028D02*
X191257564Y-58511885D01*
X191257564Y-58511885D02*
X191328993Y-58583314D01*
X191328993Y-58583314D02*
X191471850Y-58654742D01*
X191471850Y-58654742D02*
X192043279Y-58654742D01*
X190257564Y-57869028D02*
X189971850Y-57869028D01*
X189971850Y-57869028D02*
X189828993Y-57940457D01*
X189828993Y-57940457D02*
X189686136Y-58083314D01*
X189686136Y-58083314D02*
X189614707Y-58369028D01*
X189614707Y-58369028D02*
X189614707Y-58869028D01*
X189614707Y-58869028D02*
X189686136Y-59154742D01*
X189686136Y-59154742D02*
X189828993Y-59297600D01*
X189828993Y-59297600D02*
X189971850Y-59369028D01*
X189971850Y-59369028D02*
X190257564Y-59369028D01*
X190257564Y-59369028D02*
X190400422Y-59297600D01*
X190400422Y-59297600D02*
X190543279Y-59154742D01*
X190543279Y-59154742D02*
X190614707Y-58869028D01*
X190614707Y-58869028D02*
X190614707Y-58369028D01*
X190614707Y-58369028D02*
X190543279Y-58083314D01*
X190543279Y-58083314D02*
X190400422Y-57940457D01*
X190400422Y-57940457D02*
X190257564Y-57869028D01*
X189114707Y-57869028D02*
X188757564Y-59369028D01*
X188757564Y-59369028D02*
X188471850Y-58297600D01*
X188471850Y-58297600D02*
X188186135Y-59369028D01*
X188186135Y-59369028D02*
X187828993Y-57869028D01*
X187257564Y-58583314D02*
X186757564Y-58583314D01*
X186543278Y-59369028D02*
X187257564Y-59369028D01*
X187257564Y-59369028D02*
X187257564Y-57869028D01*
X187257564Y-57869028D02*
X186543278Y-57869028D01*
X185043278Y-59369028D02*
X185543278Y-58654742D01*
X185900421Y-59369028D02*
X185900421Y-57869028D01*
X185900421Y-57869028D02*
X185328992Y-57869028D01*
X185328992Y-57869028D02*
X185186135Y-57940457D01*
X185186135Y-57940457D02*
X185114706Y-58011885D01*
X185114706Y-58011885D02*
X185043278Y-58154742D01*
X185043278Y-58154742D02*
X185043278Y-58369028D01*
X185043278Y-58369028D02*
X185114706Y-58511885D01*
X185114706Y-58511885D02*
X185186135Y-58583314D01*
X185186135Y-58583314D02*
X185328992Y-58654742D01*
X185328992Y-58654742D02*
X185900421Y-58654742D01*
X189916136Y-35731171D02*
X189987564Y-35802600D01*
X189987564Y-35802600D02*
X190201850Y-35874028D01*
X190201850Y-35874028D02*
X190344707Y-35874028D01*
X190344707Y-35874028D02*
X190558993Y-35802600D01*
X190558993Y-35802600D02*
X190701850Y-35659742D01*
X190701850Y-35659742D02*
X190773279Y-35516885D01*
X190773279Y-35516885D02*
X190844707Y-35231171D01*
X190844707Y-35231171D02*
X190844707Y-35016885D01*
X190844707Y-35016885D02*
X190773279Y-34731171D01*
X190773279Y-34731171D02*
X190701850Y-34588314D01*
X190701850Y-34588314D02*
X190558993Y-34445457D01*
X190558993Y-34445457D02*
X190344707Y-34374028D01*
X190344707Y-34374028D02*
X190201850Y-34374028D01*
X190201850Y-34374028D02*
X189987564Y-34445457D01*
X189987564Y-34445457D02*
X189916136Y-34516885D01*
X188987564Y-34374028D02*
X188701850Y-34374028D01*
X188701850Y-34374028D02*
X188558993Y-34445457D01*
X188558993Y-34445457D02*
X188416136Y-34588314D01*
X188416136Y-34588314D02*
X188344707Y-34874028D01*
X188344707Y-34874028D02*
X188344707Y-35374028D01*
X188344707Y-35374028D02*
X188416136Y-35659742D01*
X188416136Y-35659742D02*
X188558993Y-35802600D01*
X188558993Y-35802600D02*
X188701850Y-35874028D01*
X188701850Y-35874028D02*
X188987564Y-35874028D01*
X188987564Y-35874028D02*
X189130422Y-35802600D01*
X189130422Y-35802600D02*
X189273279Y-35659742D01*
X189273279Y-35659742D02*
X189344707Y-35374028D01*
X189344707Y-35374028D02*
X189344707Y-34874028D01*
X189344707Y-34874028D02*
X189273279Y-34588314D01*
X189273279Y-34588314D02*
X189130422Y-34445457D01*
X189130422Y-34445457D02*
X188987564Y-34374028D01*
X187701850Y-35874028D02*
X187701850Y-34374028D01*
X187701850Y-34374028D02*
X186844707Y-35874028D01*
X186844707Y-35874028D02*
X186844707Y-34374028D01*
X186344706Y-34374028D02*
X185487564Y-34374028D01*
X185916135Y-35874028D02*
X185916135Y-34374028D01*
X184130421Y-35874028D02*
X184630421Y-35159742D01*
X184987564Y-35874028D02*
X184987564Y-34374028D01*
X184987564Y-34374028D02*
X184416135Y-34374028D01*
X184416135Y-34374028D02*
X184273278Y-34445457D01*
X184273278Y-34445457D02*
X184201849Y-34516885D01*
X184201849Y-34516885D02*
X184130421Y-34659742D01*
X184130421Y-34659742D02*
X184130421Y-34874028D01*
X184130421Y-34874028D02*
X184201849Y-35016885D01*
X184201849Y-35016885D02*
X184273278Y-35088314D01*
X184273278Y-35088314D02*
X184416135Y-35159742D01*
X184416135Y-35159742D02*
X184987564Y-35159742D01*
X183558992Y-35445457D02*
X182844707Y-35445457D01*
X183701849Y-35874028D02*
X183201849Y-34374028D01*
X183201849Y-34374028D02*
X182701849Y-35874028D01*
X182273278Y-35802600D02*
X182058993Y-35874028D01*
X182058993Y-35874028D02*
X181701850Y-35874028D01*
X181701850Y-35874028D02*
X181558993Y-35802600D01*
X181558993Y-35802600D02*
X181487564Y-35731171D01*
X181487564Y-35731171D02*
X181416135Y-35588314D01*
X181416135Y-35588314D02*
X181416135Y-35445457D01*
X181416135Y-35445457D02*
X181487564Y-35302600D01*
X181487564Y-35302600D02*
X181558993Y-35231171D01*
X181558993Y-35231171D02*
X181701850Y-35159742D01*
X181701850Y-35159742D02*
X181987564Y-35088314D01*
X181987564Y-35088314D02*
X182130421Y-35016885D01*
X182130421Y-35016885D02*
X182201850Y-34945457D01*
X182201850Y-34945457D02*
X182273278Y-34802600D01*
X182273278Y-34802600D02*
X182273278Y-34659742D01*
X182273278Y-34659742D02*
X182201850Y-34516885D01*
X182201850Y-34516885D02*
X182130421Y-34445457D01*
X182130421Y-34445457D02*
X181987564Y-34374028D01*
X181987564Y-34374028D02*
X181630421Y-34374028D01*
X181630421Y-34374028D02*
X181416135Y-34445457D01*
X180987564Y-34374028D02*
X180130422Y-34374028D01*
X180558993Y-35874028D02*
X180558993Y-34374028D01*
X63138279Y-90738028D02*
X63138279Y-89238028D01*
X63138279Y-89238028D02*
X62638279Y-90309457D01*
X62638279Y-90309457D02*
X62138279Y-89238028D01*
X62138279Y-89238028D02*
X62138279Y-90738028D01*
X61423993Y-89952314D02*
X60923993Y-89952314D01*
X60709707Y-90738028D02*
X61423993Y-90738028D01*
X61423993Y-90738028D02*
X61423993Y-89238028D01*
X61423993Y-89238028D02*
X60709707Y-89238028D01*
X60066850Y-90738028D02*
X60066850Y-89238028D01*
X60066850Y-89238028D02*
X59209707Y-90738028D01*
X59209707Y-90738028D02*
X59209707Y-89238028D01*
X58495421Y-89238028D02*
X58495421Y-90452314D01*
X58495421Y-90452314D02*
X58423992Y-90595171D01*
X58423992Y-90595171D02*
X58352564Y-90666600D01*
X58352564Y-90666600D02*
X58209706Y-90738028D01*
X58209706Y-90738028D02*
X57923992Y-90738028D01*
X57923992Y-90738028D02*
X57781135Y-90666600D01*
X57781135Y-90666600D02*
X57709706Y-90595171D01*
X57709706Y-90595171D02*
X57638278Y-90452314D01*
X57638278Y-90452314D02*
X57638278Y-89238028D01*
D12*
%TO.C,D202*%
X72810475Y-57604819D02*
X72810475Y-56604819D01*
X72810475Y-56604819D02*
X72572380Y-56604819D01*
X72572380Y-56604819D02*
X72429523Y-56652438D01*
X72429523Y-56652438D02*
X72334285Y-56747676D01*
X72334285Y-56747676D02*
X72286666Y-56842914D01*
X72286666Y-56842914D02*
X72239047Y-57033390D01*
X72239047Y-57033390D02*
X72239047Y-57176247D01*
X72239047Y-57176247D02*
X72286666Y-57366723D01*
X72286666Y-57366723D02*
X72334285Y-57461961D01*
X72334285Y-57461961D02*
X72429523Y-57557200D01*
X72429523Y-57557200D02*
X72572380Y-57604819D01*
X72572380Y-57604819D02*
X72810475Y-57604819D01*
X71858094Y-56700057D02*
X71810475Y-56652438D01*
X71810475Y-56652438D02*
X71715237Y-56604819D01*
X71715237Y-56604819D02*
X71477142Y-56604819D01*
X71477142Y-56604819D02*
X71381904Y-56652438D01*
X71381904Y-56652438D02*
X71334285Y-56700057D01*
X71334285Y-56700057D02*
X71286666Y-56795295D01*
X71286666Y-56795295D02*
X71286666Y-56890533D01*
X71286666Y-56890533D02*
X71334285Y-57033390D01*
X71334285Y-57033390D02*
X71905713Y-57604819D01*
X71905713Y-57604819D02*
X71286666Y-57604819D01*
X70667618Y-56604819D02*
X70572380Y-56604819D01*
X70572380Y-56604819D02*
X70477142Y-56652438D01*
X70477142Y-56652438D02*
X70429523Y-56700057D01*
X70429523Y-56700057D02*
X70381904Y-56795295D01*
X70381904Y-56795295D02*
X70334285Y-56985771D01*
X70334285Y-56985771D02*
X70334285Y-57223866D01*
X70334285Y-57223866D02*
X70381904Y-57414342D01*
X70381904Y-57414342D02*
X70429523Y-57509580D01*
X70429523Y-57509580D02*
X70477142Y-57557200D01*
X70477142Y-57557200D02*
X70572380Y-57604819D01*
X70572380Y-57604819D02*
X70667618Y-57604819D01*
X70667618Y-57604819D02*
X70762856Y-57557200D01*
X70762856Y-57557200D02*
X70810475Y-57509580D01*
X70810475Y-57509580D02*
X70858094Y-57414342D01*
X70858094Y-57414342D02*
X70905713Y-57223866D01*
X70905713Y-57223866D02*
X70905713Y-56985771D01*
X70905713Y-56985771D02*
X70858094Y-56795295D01*
X70858094Y-56795295D02*
X70810475Y-56700057D01*
X70810475Y-56700057D02*
X70762856Y-56652438D01*
X70762856Y-56652438D02*
X70667618Y-56604819D01*
X69953332Y-56700057D02*
X69905713Y-56652438D01*
X69905713Y-56652438D02*
X69810475Y-56604819D01*
X69810475Y-56604819D02*
X69572380Y-56604819D01*
X69572380Y-56604819D02*
X69477142Y-56652438D01*
X69477142Y-56652438D02*
X69429523Y-56700057D01*
X69429523Y-56700057D02*
X69381904Y-56795295D01*
X69381904Y-56795295D02*
X69381904Y-56890533D01*
X69381904Y-56890533D02*
X69429523Y-57033390D01*
X69429523Y-57033390D02*
X70000951Y-57604819D01*
X70000951Y-57604819D02*
X69381904Y-57604819D01*
%TO.C,D203*%
X72810475Y-44904819D02*
X72810475Y-43904819D01*
X72810475Y-43904819D02*
X72572380Y-43904819D01*
X72572380Y-43904819D02*
X72429523Y-43952438D01*
X72429523Y-43952438D02*
X72334285Y-44047676D01*
X72334285Y-44047676D02*
X72286666Y-44142914D01*
X72286666Y-44142914D02*
X72239047Y-44333390D01*
X72239047Y-44333390D02*
X72239047Y-44476247D01*
X72239047Y-44476247D02*
X72286666Y-44666723D01*
X72286666Y-44666723D02*
X72334285Y-44761961D01*
X72334285Y-44761961D02*
X72429523Y-44857200D01*
X72429523Y-44857200D02*
X72572380Y-44904819D01*
X72572380Y-44904819D02*
X72810475Y-44904819D01*
X71858094Y-44000057D02*
X71810475Y-43952438D01*
X71810475Y-43952438D02*
X71715237Y-43904819D01*
X71715237Y-43904819D02*
X71477142Y-43904819D01*
X71477142Y-43904819D02*
X71381904Y-43952438D01*
X71381904Y-43952438D02*
X71334285Y-44000057D01*
X71334285Y-44000057D02*
X71286666Y-44095295D01*
X71286666Y-44095295D02*
X71286666Y-44190533D01*
X71286666Y-44190533D02*
X71334285Y-44333390D01*
X71334285Y-44333390D02*
X71905713Y-44904819D01*
X71905713Y-44904819D02*
X71286666Y-44904819D01*
X70667618Y-43904819D02*
X70572380Y-43904819D01*
X70572380Y-43904819D02*
X70477142Y-43952438D01*
X70477142Y-43952438D02*
X70429523Y-44000057D01*
X70429523Y-44000057D02*
X70381904Y-44095295D01*
X70381904Y-44095295D02*
X70334285Y-44285771D01*
X70334285Y-44285771D02*
X70334285Y-44523866D01*
X70334285Y-44523866D02*
X70381904Y-44714342D01*
X70381904Y-44714342D02*
X70429523Y-44809580D01*
X70429523Y-44809580D02*
X70477142Y-44857200D01*
X70477142Y-44857200D02*
X70572380Y-44904819D01*
X70572380Y-44904819D02*
X70667618Y-44904819D01*
X70667618Y-44904819D02*
X70762856Y-44857200D01*
X70762856Y-44857200D02*
X70810475Y-44809580D01*
X70810475Y-44809580D02*
X70858094Y-44714342D01*
X70858094Y-44714342D02*
X70905713Y-44523866D01*
X70905713Y-44523866D02*
X70905713Y-44285771D01*
X70905713Y-44285771D02*
X70858094Y-44095295D01*
X70858094Y-44095295D02*
X70810475Y-44000057D01*
X70810475Y-44000057D02*
X70762856Y-43952438D01*
X70762856Y-43952438D02*
X70667618Y-43904819D01*
X70000951Y-43904819D02*
X69381904Y-43904819D01*
X69381904Y-43904819D02*
X69715237Y-44285771D01*
X69715237Y-44285771D02*
X69572380Y-44285771D01*
X69572380Y-44285771D02*
X69477142Y-44333390D01*
X69477142Y-44333390D02*
X69429523Y-44381009D01*
X69429523Y-44381009D02*
X69381904Y-44476247D01*
X69381904Y-44476247D02*
X69381904Y-44714342D01*
X69381904Y-44714342D02*
X69429523Y-44809580D01*
X69429523Y-44809580D02*
X69477142Y-44857200D01*
X69477142Y-44857200D02*
X69572380Y-44904819D01*
X69572380Y-44904819D02*
X69858094Y-44904819D01*
X69858094Y-44904819D02*
X69953332Y-44857200D01*
X69953332Y-44857200D02*
X70000951Y-44809580D01*
%TO.C,D201*%
X72810475Y-70304819D02*
X72810475Y-69304819D01*
X72810475Y-69304819D02*
X72572380Y-69304819D01*
X72572380Y-69304819D02*
X72429523Y-69352438D01*
X72429523Y-69352438D02*
X72334285Y-69447676D01*
X72334285Y-69447676D02*
X72286666Y-69542914D01*
X72286666Y-69542914D02*
X72239047Y-69733390D01*
X72239047Y-69733390D02*
X72239047Y-69876247D01*
X72239047Y-69876247D02*
X72286666Y-70066723D01*
X72286666Y-70066723D02*
X72334285Y-70161961D01*
X72334285Y-70161961D02*
X72429523Y-70257200D01*
X72429523Y-70257200D02*
X72572380Y-70304819D01*
X72572380Y-70304819D02*
X72810475Y-70304819D01*
X71858094Y-69400057D02*
X71810475Y-69352438D01*
X71810475Y-69352438D02*
X71715237Y-69304819D01*
X71715237Y-69304819D02*
X71477142Y-69304819D01*
X71477142Y-69304819D02*
X71381904Y-69352438D01*
X71381904Y-69352438D02*
X71334285Y-69400057D01*
X71334285Y-69400057D02*
X71286666Y-69495295D01*
X71286666Y-69495295D02*
X71286666Y-69590533D01*
X71286666Y-69590533D02*
X71334285Y-69733390D01*
X71334285Y-69733390D02*
X71905713Y-70304819D01*
X71905713Y-70304819D02*
X71286666Y-70304819D01*
X70667618Y-69304819D02*
X70572380Y-69304819D01*
X70572380Y-69304819D02*
X70477142Y-69352438D01*
X70477142Y-69352438D02*
X70429523Y-69400057D01*
X70429523Y-69400057D02*
X70381904Y-69495295D01*
X70381904Y-69495295D02*
X70334285Y-69685771D01*
X70334285Y-69685771D02*
X70334285Y-69923866D01*
X70334285Y-69923866D02*
X70381904Y-70114342D01*
X70381904Y-70114342D02*
X70429523Y-70209580D01*
X70429523Y-70209580D02*
X70477142Y-70257200D01*
X70477142Y-70257200D02*
X70572380Y-70304819D01*
X70572380Y-70304819D02*
X70667618Y-70304819D01*
X70667618Y-70304819D02*
X70762856Y-70257200D01*
X70762856Y-70257200D02*
X70810475Y-70209580D01*
X70810475Y-70209580D02*
X70858094Y-70114342D01*
X70858094Y-70114342D02*
X70905713Y-69923866D01*
X70905713Y-69923866D02*
X70905713Y-69685771D01*
X70905713Y-69685771D02*
X70858094Y-69495295D01*
X70858094Y-69495295D02*
X70810475Y-69400057D01*
X70810475Y-69400057D02*
X70762856Y-69352438D01*
X70762856Y-69352438D02*
X70667618Y-69304819D01*
X69381904Y-70304819D02*
X69953332Y-70304819D01*
X69667618Y-70304819D02*
X69667618Y-69304819D01*
X69667618Y-69304819D02*
X69762856Y-69447676D01*
X69762856Y-69447676D02*
X69858094Y-69542914D01*
X69858094Y-69542914D02*
X69953332Y-69590533D01*
%TO.C,D204*%
X73064475Y-31950819D02*
X73064475Y-30950819D01*
X73064475Y-30950819D02*
X72826380Y-30950819D01*
X72826380Y-30950819D02*
X72683523Y-30998438D01*
X72683523Y-30998438D02*
X72588285Y-31093676D01*
X72588285Y-31093676D02*
X72540666Y-31188914D01*
X72540666Y-31188914D02*
X72493047Y-31379390D01*
X72493047Y-31379390D02*
X72493047Y-31522247D01*
X72493047Y-31522247D02*
X72540666Y-31712723D01*
X72540666Y-31712723D02*
X72588285Y-31807961D01*
X72588285Y-31807961D02*
X72683523Y-31903200D01*
X72683523Y-31903200D02*
X72826380Y-31950819D01*
X72826380Y-31950819D02*
X73064475Y-31950819D01*
X72112094Y-31046057D02*
X72064475Y-30998438D01*
X72064475Y-30998438D02*
X71969237Y-30950819D01*
X71969237Y-30950819D02*
X71731142Y-30950819D01*
X71731142Y-30950819D02*
X71635904Y-30998438D01*
X71635904Y-30998438D02*
X71588285Y-31046057D01*
X71588285Y-31046057D02*
X71540666Y-31141295D01*
X71540666Y-31141295D02*
X71540666Y-31236533D01*
X71540666Y-31236533D02*
X71588285Y-31379390D01*
X71588285Y-31379390D02*
X72159713Y-31950819D01*
X72159713Y-31950819D02*
X71540666Y-31950819D01*
X70921618Y-30950819D02*
X70826380Y-30950819D01*
X70826380Y-30950819D02*
X70731142Y-30998438D01*
X70731142Y-30998438D02*
X70683523Y-31046057D01*
X70683523Y-31046057D02*
X70635904Y-31141295D01*
X70635904Y-31141295D02*
X70588285Y-31331771D01*
X70588285Y-31331771D02*
X70588285Y-31569866D01*
X70588285Y-31569866D02*
X70635904Y-31760342D01*
X70635904Y-31760342D02*
X70683523Y-31855580D01*
X70683523Y-31855580D02*
X70731142Y-31903200D01*
X70731142Y-31903200D02*
X70826380Y-31950819D01*
X70826380Y-31950819D02*
X70921618Y-31950819D01*
X70921618Y-31950819D02*
X71016856Y-31903200D01*
X71016856Y-31903200D02*
X71064475Y-31855580D01*
X71064475Y-31855580D02*
X71112094Y-31760342D01*
X71112094Y-31760342D02*
X71159713Y-31569866D01*
X71159713Y-31569866D02*
X71159713Y-31331771D01*
X71159713Y-31331771D02*
X71112094Y-31141295D01*
X71112094Y-31141295D02*
X71064475Y-31046057D01*
X71064475Y-31046057D02*
X71016856Y-30998438D01*
X71016856Y-30998438D02*
X70921618Y-30950819D01*
X69731142Y-31284152D02*
X69731142Y-31950819D01*
X69969237Y-30903200D02*
X70207332Y-31617485D01*
X70207332Y-31617485D02*
X69588285Y-31617485D01*
%TO.C,D205*%
X72810475Y-19504819D02*
X72810475Y-18504819D01*
X72810475Y-18504819D02*
X72572380Y-18504819D01*
X72572380Y-18504819D02*
X72429523Y-18552438D01*
X72429523Y-18552438D02*
X72334285Y-18647676D01*
X72334285Y-18647676D02*
X72286666Y-18742914D01*
X72286666Y-18742914D02*
X72239047Y-18933390D01*
X72239047Y-18933390D02*
X72239047Y-19076247D01*
X72239047Y-19076247D02*
X72286666Y-19266723D01*
X72286666Y-19266723D02*
X72334285Y-19361961D01*
X72334285Y-19361961D02*
X72429523Y-19457200D01*
X72429523Y-19457200D02*
X72572380Y-19504819D01*
X72572380Y-19504819D02*
X72810475Y-19504819D01*
X71858094Y-18600057D02*
X71810475Y-18552438D01*
X71810475Y-18552438D02*
X71715237Y-18504819D01*
X71715237Y-18504819D02*
X71477142Y-18504819D01*
X71477142Y-18504819D02*
X71381904Y-18552438D01*
X71381904Y-18552438D02*
X71334285Y-18600057D01*
X71334285Y-18600057D02*
X71286666Y-18695295D01*
X71286666Y-18695295D02*
X71286666Y-18790533D01*
X71286666Y-18790533D02*
X71334285Y-18933390D01*
X71334285Y-18933390D02*
X71905713Y-19504819D01*
X71905713Y-19504819D02*
X71286666Y-19504819D01*
X70667618Y-18504819D02*
X70572380Y-18504819D01*
X70572380Y-18504819D02*
X70477142Y-18552438D01*
X70477142Y-18552438D02*
X70429523Y-18600057D01*
X70429523Y-18600057D02*
X70381904Y-18695295D01*
X70381904Y-18695295D02*
X70334285Y-18885771D01*
X70334285Y-18885771D02*
X70334285Y-19123866D01*
X70334285Y-19123866D02*
X70381904Y-19314342D01*
X70381904Y-19314342D02*
X70429523Y-19409580D01*
X70429523Y-19409580D02*
X70477142Y-19457200D01*
X70477142Y-19457200D02*
X70572380Y-19504819D01*
X70572380Y-19504819D02*
X70667618Y-19504819D01*
X70667618Y-19504819D02*
X70762856Y-19457200D01*
X70762856Y-19457200D02*
X70810475Y-19409580D01*
X70810475Y-19409580D02*
X70858094Y-19314342D01*
X70858094Y-19314342D02*
X70905713Y-19123866D01*
X70905713Y-19123866D02*
X70905713Y-18885771D01*
X70905713Y-18885771D02*
X70858094Y-18695295D01*
X70858094Y-18695295D02*
X70810475Y-18600057D01*
X70810475Y-18600057D02*
X70762856Y-18552438D01*
X70762856Y-18552438D02*
X70667618Y-18504819D01*
X69429523Y-18504819D02*
X69905713Y-18504819D01*
X69905713Y-18504819D02*
X69953332Y-18981009D01*
X69953332Y-18981009D02*
X69905713Y-18933390D01*
X69905713Y-18933390D02*
X69810475Y-18885771D01*
X69810475Y-18885771D02*
X69572380Y-18885771D01*
X69572380Y-18885771D02*
X69477142Y-18933390D01*
X69477142Y-18933390D02*
X69429523Y-18981009D01*
X69429523Y-18981009D02*
X69381904Y-19076247D01*
X69381904Y-19076247D02*
X69381904Y-19314342D01*
X69381904Y-19314342D02*
X69429523Y-19409580D01*
X69429523Y-19409580D02*
X69477142Y-19457200D01*
X69477142Y-19457200D02*
X69572380Y-19504819D01*
X69572380Y-19504819D02*
X69810475Y-19504819D01*
X69810475Y-19504819D02*
X69905713Y-19457200D01*
X69905713Y-19457200D02*
X69953332Y-19409580D01*
%TO.C,D105*%
X184697475Y-53794819D02*
X184697475Y-52794819D01*
X184697475Y-52794819D02*
X184459380Y-52794819D01*
X184459380Y-52794819D02*
X184316523Y-52842438D01*
X184316523Y-52842438D02*
X184221285Y-52937676D01*
X184221285Y-52937676D02*
X184173666Y-53032914D01*
X184173666Y-53032914D02*
X184126047Y-53223390D01*
X184126047Y-53223390D02*
X184126047Y-53366247D01*
X184126047Y-53366247D02*
X184173666Y-53556723D01*
X184173666Y-53556723D02*
X184221285Y-53651961D01*
X184221285Y-53651961D02*
X184316523Y-53747200D01*
X184316523Y-53747200D02*
X184459380Y-53794819D01*
X184459380Y-53794819D02*
X184697475Y-53794819D01*
X183173666Y-53794819D02*
X183745094Y-53794819D01*
X183459380Y-53794819D02*
X183459380Y-52794819D01*
X183459380Y-52794819D02*
X183554618Y-52937676D01*
X183554618Y-52937676D02*
X183649856Y-53032914D01*
X183649856Y-53032914D02*
X183745094Y-53080533D01*
X182554618Y-52794819D02*
X182459380Y-52794819D01*
X182459380Y-52794819D02*
X182364142Y-52842438D01*
X182364142Y-52842438D02*
X182316523Y-52890057D01*
X182316523Y-52890057D02*
X182268904Y-52985295D01*
X182268904Y-52985295D02*
X182221285Y-53175771D01*
X182221285Y-53175771D02*
X182221285Y-53413866D01*
X182221285Y-53413866D02*
X182268904Y-53604342D01*
X182268904Y-53604342D02*
X182316523Y-53699580D01*
X182316523Y-53699580D02*
X182364142Y-53747200D01*
X182364142Y-53747200D02*
X182459380Y-53794819D01*
X182459380Y-53794819D02*
X182554618Y-53794819D01*
X182554618Y-53794819D02*
X182649856Y-53747200D01*
X182649856Y-53747200D02*
X182697475Y-53699580D01*
X182697475Y-53699580D02*
X182745094Y-53604342D01*
X182745094Y-53604342D02*
X182792713Y-53413866D01*
X182792713Y-53413866D02*
X182792713Y-53175771D01*
X182792713Y-53175771D02*
X182745094Y-52985295D01*
X182745094Y-52985295D02*
X182697475Y-52890057D01*
X182697475Y-52890057D02*
X182649856Y-52842438D01*
X182649856Y-52842438D02*
X182554618Y-52794819D01*
X181316523Y-52794819D02*
X181792713Y-52794819D01*
X181792713Y-52794819D02*
X181840332Y-53271009D01*
X181840332Y-53271009D02*
X181792713Y-53223390D01*
X181792713Y-53223390D02*
X181697475Y-53175771D01*
X181697475Y-53175771D02*
X181459380Y-53175771D01*
X181459380Y-53175771D02*
X181364142Y-53223390D01*
X181364142Y-53223390D02*
X181316523Y-53271009D01*
X181316523Y-53271009D02*
X181268904Y-53366247D01*
X181268904Y-53366247D02*
X181268904Y-53604342D01*
X181268904Y-53604342D02*
X181316523Y-53699580D01*
X181316523Y-53699580D02*
X181364142Y-53747200D01*
X181364142Y-53747200D02*
X181459380Y-53794819D01*
X181459380Y-53794819D02*
X181697475Y-53794819D01*
X181697475Y-53794819D02*
X181792713Y-53747200D01*
X181792713Y-53747200D02*
X181840332Y-53699580D01*
%TO.C,MF605*%
X67764819Y-20415524D02*
X66764819Y-20415524D01*
X66764819Y-20415524D02*
X67479104Y-20748857D01*
X67479104Y-20748857D02*
X66764819Y-21082190D01*
X66764819Y-21082190D02*
X67764819Y-21082190D01*
X67241009Y-21891714D02*
X67241009Y-21558381D01*
X67764819Y-21558381D02*
X66764819Y-21558381D01*
X66764819Y-21558381D02*
X66764819Y-22034571D01*
X66764819Y-22844095D02*
X66764819Y-22653619D01*
X66764819Y-22653619D02*
X66812438Y-22558381D01*
X66812438Y-22558381D02*
X66860057Y-22510762D01*
X66860057Y-22510762D02*
X67002914Y-22415524D01*
X67002914Y-22415524D02*
X67193390Y-22367905D01*
X67193390Y-22367905D02*
X67574342Y-22367905D01*
X67574342Y-22367905D02*
X67669580Y-22415524D01*
X67669580Y-22415524D02*
X67717200Y-22463143D01*
X67717200Y-22463143D02*
X67764819Y-22558381D01*
X67764819Y-22558381D02*
X67764819Y-22748857D01*
X67764819Y-22748857D02*
X67717200Y-22844095D01*
X67717200Y-22844095D02*
X67669580Y-22891714D01*
X67669580Y-22891714D02*
X67574342Y-22939333D01*
X67574342Y-22939333D02*
X67336247Y-22939333D01*
X67336247Y-22939333D02*
X67241009Y-22891714D01*
X67241009Y-22891714D02*
X67193390Y-22844095D01*
X67193390Y-22844095D02*
X67145771Y-22748857D01*
X67145771Y-22748857D02*
X67145771Y-22558381D01*
X67145771Y-22558381D02*
X67193390Y-22463143D01*
X67193390Y-22463143D02*
X67241009Y-22415524D01*
X67241009Y-22415524D02*
X67336247Y-22367905D01*
X66764819Y-23558381D02*
X66764819Y-23653619D01*
X66764819Y-23653619D02*
X66812438Y-23748857D01*
X66812438Y-23748857D02*
X66860057Y-23796476D01*
X66860057Y-23796476D02*
X66955295Y-23844095D01*
X66955295Y-23844095D02*
X67145771Y-23891714D01*
X67145771Y-23891714D02*
X67383866Y-23891714D01*
X67383866Y-23891714D02*
X67574342Y-23844095D01*
X67574342Y-23844095D02*
X67669580Y-23796476D01*
X67669580Y-23796476D02*
X67717200Y-23748857D01*
X67717200Y-23748857D02*
X67764819Y-23653619D01*
X67764819Y-23653619D02*
X67764819Y-23558381D01*
X67764819Y-23558381D02*
X67717200Y-23463143D01*
X67717200Y-23463143D02*
X67669580Y-23415524D01*
X67669580Y-23415524D02*
X67574342Y-23367905D01*
X67574342Y-23367905D02*
X67383866Y-23320286D01*
X67383866Y-23320286D02*
X67145771Y-23320286D01*
X67145771Y-23320286D02*
X66955295Y-23367905D01*
X66955295Y-23367905D02*
X66860057Y-23415524D01*
X66860057Y-23415524D02*
X66812438Y-23463143D01*
X66812438Y-23463143D02*
X66764819Y-23558381D01*
X66764819Y-24796476D02*
X66764819Y-24320286D01*
X66764819Y-24320286D02*
X67241009Y-24272667D01*
X67241009Y-24272667D02*
X67193390Y-24320286D01*
X67193390Y-24320286D02*
X67145771Y-24415524D01*
X67145771Y-24415524D02*
X67145771Y-24653619D01*
X67145771Y-24653619D02*
X67193390Y-24748857D01*
X67193390Y-24748857D02*
X67241009Y-24796476D01*
X67241009Y-24796476D02*
X67336247Y-24844095D01*
X67336247Y-24844095D02*
X67574342Y-24844095D01*
X67574342Y-24844095D02*
X67669580Y-24796476D01*
X67669580Y-24796476D02*
X67717200Y-24748857D01*
X67717200Y-24748857D02*
X67764819Y-24653619D01*
X67764819Y-24653619D02*
X67764819Y-24415524D01*
X67764819Y-24415524D02*
X67717200Y-24320286D01*
X67717200Y-24320286D02*
X67669580Y-24272667D01*
%TO.C,MF601*%
X67764819Y-69945524D02*
X66764819Y-69945524D01*
X66764819Y-69945524D02*
X67479104Y-70278857D01*
X67479104Y-70278857D02*
X66764819Y-70612190D01*
X66764819Y-70612190D02*
X67764819Y-70612190D01*
X67241009Y-71421714D02*
X67241009Y-71088381D01*
X67764819Y-71088381D02*
X66764819Y-71088381D01*
X66764819Y-71088381D02*
X66764819Y-71564571D01*
X66764819Y-72374095D02*
X66764819Y-72183619D01*
X66764819Y-72183619D02*
X66812438Y-72088381D01*
X66812438Y-72088381D02*
X66860057Y-72040762D01*
X66860057Y-72040762D02*
X67002914Y-71945524D01*
X67002914Y-71945524D02*
X67193390Y-71897905D01*
X67193390Y-71897905D02*
X67574342Y-71897905D01*
X67574342Y-71897905D02*
X67669580Y-71945524D01*
X67669580Y-71945524D02*
X67717200Y-71993143D01*
X67717200Y-71993143D02*
X67764819Y-72088381D01*
X67764819Y-72088381D02*
X67764819Y-72278857D01*
X67764819Y-72278857D02*
X67717200Y-72374095D01*
X67717200Y-72374095D02*
X67669580Y-72421714D01*
X67669580Y-72421714D02*
X67574342Y-72469333D01*
X67574342Y-72469333D02*
X67336247Y-72469333D01*
X67336247Y-72469333D02*
X67241009Y-72421714D01*
X67241009Y-72421714D02*
X67193390Y-72374095D01*
X67193390Y-72374095D02*
X67145771Y-72278857D01*
X67145771Y-72278857D02*
X67145771Y-72088381D01*
X67145771Y-72088381D02*
X67193390Y-71993143D01*
X67193390Y-71993143D02*
X67241009Y-71945524D01*
X67241009Y-71945524D02*
X67336247Y-71897905D01*
X66764819Y-73088381D02*
X66764819Y-73183619D01*
X66764819Y-73183619D02*
X66812438Y-73278857D01*
X66812438Y-73278857D02*
X66860057Y-73326476D01*
X66860057Y-73326476D02*
X66955295Y-73374095D01*
X66955295Y-73374095D02*
X67145771Y-73421714D01*
X67145771Y-73421714D02*
X67383866Y-73421714D01*
X67383866Y-73421714D02*
X67574342Y-73374095D01*
X67574342Y-73374095D02*
X67669580Y-73326476D01*
X67669580Y-73326476D02*
X67717200Y-73278857D01*
X67717200Y-73278857D02*
X67764819Y-73183619D01*
X67764819Y-73183619D02*
X67764819Y-73088381D01*
X67764819Y-73088381D02*
X67717200Y-72993143D01*
X67717200Y-72993143D02*
X67669580Y-72945524D01*
X67669580Y-72945524D02*
X67574342Y-72897905D01*
X67574342Y-72897905D02*
X67383866Y-72850286D01*
X67383866Y-72850286D02*
X67145771Y-72850286D01*
X67145771Y-72850286D02*
X66955295Y-72897905D01*
X66955295Y-72897905D02*
X66860057Y-72945524D01*
X66860057Y-72945524D02*
X66812438Y-72993143D01*
X66812438Y-72993143D02*
X66764819Y-73088381D01*
X67764819Y-74374095D02*
X67764819Y-73802667D01*
X67764819Y-74088381D02*
X66764819Y-74088381D01*
X66764819Y-74088381D02*
X66907676Y-73993143D01*
X66907676Y-73993143D02*
X67002914Y-73897905D01*
X67002914Y-73897905D02*
X67050533Y-73802667D01*
%TO.C,RV301*%
X180286819Y-41378380D02*
X179810628Y-41045047D01*
X180286819Y-40806952D02*
X179286819Y-40806952D01*
X179286819Y-40806952D02*
X179286819Y-41187904D01*
X179286819Y-41187904D02*
X179334438Y-41283142D01*
X179334438Y-41283142D02*
X179382057Y-41330761D01*
X179382057Y-41330761D02*
X179477295Y-41378380D01*
X179477295Y-41378380D02*
X179620152Y-41378380D01*
X179620152Y-41378380D02*
X179715390Y-41330761D01*
X179715390Y-41330761D02*
X179763009Y-41283142D01*
X179763009Y-41283142D02*
X179810628Y-41187904D01*
X179810628Y-41187904D02*
X179810628Y-40806952D01*
X179286819Y-41664095D02*
X180286819Y-41997428D01*
X180286819Y-41997428D02*
X179286819Y-42330761D01*
X179286819Y-42568857D02*
X179286819Y-43187904D01*
X179286819Y-43187904D02*
X179667771Y-42854571D01*
X179667771Y-42854571D02*
X179667771Y-42997428D01*
X179667771Y-42997428D02*
X179715390Y-43092666D01*
X179715390Y-43092666D02*
X179763009Y-43140285D01*
X179763009Y-43140285D02*
X179858247Y-43187904D01*
X179858247Y-43187904D02*
X180096342Y-43187904D01*
X180096342Y-43187904D02*
X180191580Y-43140285D01*
X180191580Y-43140285D02*
X180239200Y-43092666D01*
X180239200Y-43092666D02*
X180286819Y-42997428D01*
X180286819Y-42997428D02*
X180286819Y-42711714D01*
X180286819Y-42711714D02*
X180239200Y-42616476D01*
X180239200Y-42616476D02*
X180191580Y-42568857D01*
X179286819Y-43806952D02*
X179286819Y-43902190D01*
X179286819Y-43902190D02*
X179334438Y-43997428D01*
X179334438Y-43997428D02*
X179382057Y-44045047D01*
X179382057Y-44045047D02*
X179477295Y-44092666D01*
X179477295Y-44092666D02*
X179667771Y-44140285D01*
X179667771Y-44140285D02*
X179905866Y-44140285D01*
X179905866Y-44140285D02*
X180096342Y-44092666D01*
X180096342Y-44092666D02*
X180191580Y-44045047D01*
X180191580Y-44045047D02*
X180239200Y-43997428D01*
X180239200Y-43997428D02*
X180286819Y-43902190D01*
X180286819Y-43902190D02*
X180286819Y-43806952D01*
X180286819Y-43806952D02*
X180239200Y-43711714D01*
X180239200Y-43711714D02*
X180191580Y-43664095D01*
X180191580Y-43664095D02*
X180096342Y-43616476D01*
X180096342Y-43616476D02*
X179905866Y-43568857D01*
X179905866Y-43568857D02*
X179667771Y-43568857D01*
X179667771Y-43568857D02*
X179477295Y-43616476D01*
X179477295Y-43616476D02*
X179382057Y-43664095D01*
X179382057Y-43664095D02*
X179334438Y-43711714D01*
X179334438Y-43711714D02*
X179286819Y-43806952D01*
X180286819Y-45092666D02*
X180286819Y-44521238D01*
X180286819Y-44806952D02*
X179286819Y-44806952D01*
X179286819Y-44806952D02*
X179429676Y-44711714D01*
X179429676Y-44711714D02*
X179524914Y-44616476D01*
X179524914Y-44616476D02*
X179572533Y-44521238D01*
%TO.C,MF604*%
X67764819Y-33242524D02*
X66764819Y-33242524D01*
X66764819Y-33242524D02*
X67479104Y-33575857D01*
X67479104Y-33575857D02*
X66764819Y-33909190D01*
X66764819Y-33909190D02*
X67764819Y-33909190D01*
X67241009Y-34718714D02*
X67241009Y-34385381D01*
X67764819Y-34385381D02*
X66764819Y-34385381D01*
X66764819Y-34385381D02*
X66764819Y-34861571D01*
X66764819Y-35671095D02*
X66764819Y-35480619D01*
X66764819Y-35480619D02*
X66812438Y-35385381D01*
X66812438Y-35385381D02*
X66860057Y-35337762D01*
X66860057Y-35337762D02*
X67002914Y-35242524D01*
X67002914Y-35242524D02*
X67193390Y-35194905D01*
X67193390Y-35194905D02*
X67574342Y-35194905D01*
X67574342Y-35194905D02*
X67669580Y-35242524D01*
X67669580Y-35242524D02*
X67717200Y-35290143D01*
X67717200Y-35290143D02*
X67764819Y-35385381D01*
X67764819Y-35385381D02*
X67764819Y-35575857D01*
X67764819Y-35575857D02*
X67717200Y-35671095D01*
X67717200Y-35671095D02*
X67669580Y-35718714D01*
X67669580Y-35718714D02*
X67574342Y-35766333D01*
X67574342Y-35766333D02*
X67336247Y-35766333D01*
X67336247Y-35766333D02*
X67241009Y-35718714D01*
X67241009Y-35718714D02*
X67193390Y-35671095D01*
X67193390Y-35671095D02*
X67145771Y-35575857D01*
X67145771Y-35575857D02*
X67145771Y-35385381D01*
X67145771Y-35385381D02*
X67193390Y-35290143D01*
X67193390Y-35290143D02*
X67241009Y-35242524D01*
X67241009Y-35242524D02*
X67336247Y-35194905D01*
X66764819Y-36385381D02*
X66764819Y-36480619D01*
X66764819Y-36480619D02*
X66812438Y-36575857D01*
X66812438Y-36575857D02*
X66860057Y-36623476D01*
X66860057Y-36623476D02*
X66955295Y-36671095D01*
X66955295Y-36671095D02*
X67145771Y-36718714D01*
X67145771Y-36718714D02*
X67383866Y-36718714D01*
X67383866Y-36718714D02*
X67574342Y-36671095D01*
X67574342Y-36671095D02*
X67669580Y-36623476D01*
X67669580Y-36623476D02*
X67717200Y-36575857D01*
X67717200Y-36575857D02*
X67764819Y-36480619D01*
X67764819Y-36480619D02*
X67764819Y-36385381D01*
X67764819Y-36385381D02*
X67717200Y-36290143D01*
X67717200Y-36290143D02*
X67669580Y-36242524D01*
X67669580Y-36242524D02*
X67574342Y-36194905D01*
X67574342Y-36194905D02*
X67383866Y-36147286D01*
X67383866Y-36147286D02*
X67145771Y-36147286D01*
X67145771Y-36147286D02*
X66955295Y-36194905D01*
X66955295Y-36194905D02*
X66860057Y-36242524D01*
X66860057Y-36242524D02*
X66812438Y-36290143D01*
X66812438Y-36290143D02*
X66764819Y-36385381D01*
X67098152Y-37575857D02*
X67764819Y-37575857D01*
X66717200Y-37337762D02*
X67431485Y-37099667D01*
X67431485Y-37099667D02*
X67431485Y-37718714D01*
%TO.C,MF603*%
X67510819Y-45561524D02*
X66510819Y-45561524D01*
X66510819Y-45561524D02*
X67225104Y-45894857D01*
X67225104Y-45894857D02*
X66510819Y-46228190D01*
X66510819Y-46228190D02*
X67510819Y-46228190D01*
X66987009Y-47037714D02*
X66987009Y-46704381D01*
X67510819Y-46704381D02*
X66510819Y-46704381D01*
X66510819Y-46704381D02*
X66510819Y-47180571D01*
X66510819Y-47990095D02*
X66510819Y-47799619D01*
X66510819Y-47799619D02*
X66558438Y-47704381D01*
X66558438Y-47704381D02*
X66606057Y-47656762D01*
X66606057Y-47656762D02*
X66748914Y-47561524D01*
X66748914Y-47561524D02*
X66939390Y-47513905D01*
X66939390Y-47513905D02*
X67320342Y-47513905D01*
X67320342Y-47513905D02*
X67415580Y-47561524D01*
X67415580Y-47561524D02*
X67463200Y-47609143D01*
X67463200Y-47609143D02*
X67510819Y-47704381D01*
X67510819Y-47704381D02*
X67510819Y-47894857D01*
X67510819Y-47894857D02*
X67463200Y-47990095D01*
X67463200Y-47990095D02*
X67415580Y-48037714D01*
X67415580Y-48037714D02*
X67320342Y-48085333D01*
X67320342Y-48085333D02*
X67082247Y-48085333D01*
X67082247Y-48085333D02*
X66987009Y-48037714D01*
X66987009Y-48037714D02*
X66939390Y-47990095D01*
X66939390Y-47990095D02*
X66891771Y-47894857D01*
X66891771Y-47894857D02*
X66891771Y-47704381D01*
X66891771Y-47704381D02*
X66939390Y-47609143D01*
X66939390Y-47609143D02*
X66987009Y-47561524D01*
X66987009Y-47561524D02*
X67082247Y-47513905D01*
X66510819Y-48704381D02*
X66510819Y-48799619D01*
X66510819Y-48799619D02*
X66558438Y-48894857D01*
X66558438Y-48894857D02*
X66606057Y-48942476D01*
X66606057Y-48942476D02*
X66701295Y-48990095D01*
X66701295Y-48990095D02*
X66891771Y-49037714D01*
X66891771Y-49037714D02*
X67129866Y-49037714D01*
X67129866Y-49037714D02*
X67320342Y-48990095D01*
X67320342Y-48990095D02*
X67415580Y-48942476D01*
X67415580Y-48942476D02*
X67463200Y-48894857D01*
X67463200Y-48894857D02*
X67510819Y-48799619D01*
X67510819Y-48799619D02*
X67510819Y-48704381D01*
X67510819Y-48704381D02*
X67463200Y-48609143D01*
X67463200Y-48609143D02*
X67415580Y-48561524D01*
X67415580Y-48561524D02*
X67320342Y-48513905D01*
X67320342Y-48513905D02*
X67129866Y-48466286D01*
X67129866Y-48466286D02*
X66891771Y-48466286D01*
X66891771Y-48466286D02*
X66701295Y-48513905D01*
X66701295Y-48513905D02*
X66606057Y-48561524D01*
X66606057Y-48561524D02*
X66558438Y-48609143D01*
X66558438Y-48609143D02*
X66510819Y-48704381D01*
X66510819Y-49371048D02*
X66510819Y-49990095D01*
X66510819Y-49990095D02*
X66891771Y-49656762D01*
X66891771Y-49656762D02*
X66891771Y-49799619D01*
X66891771Y-49799619D02*
X66939390Y-49894857D01*
X66939390Y-49894857D02*
X66987009Y-49942476D01*
X66987009Y-49942476D02*
X67082247Y-49990095D01*
X67082247Y-49990095D02*
X67320342Y-49990095D01*
X67320342Y-49990095D02*
X67415580Y-49942476D01*
X67415580Y-49942476D02*
X67463200Y-49894857D01*
X67463200Y-49894857D02*
X67510819Y-49799619D01*
X67510819Y-49799619D02*
X67510819Y-49513905D01*
X67510819Y-49513905D02*
X67463200Y-49418667D01*
X67463200Y-49418667D02*
X67415580Y-49371048D01*
%TO.C,MF103*%
X184689475Y-55064819D02*
X184689475Y-54064819D01*
X184689475Y-54064819D02*
X184356142Y-54779104D01*
X184356142Y-54779104D02*
X184022809Y-54064819D01*
X184022809Y-54064819D02*
X184022809Y-55064819D01*
X183213285Y-54541009D02*
X183546618Y-54541009D01*
X183546618Y-55064819D02*
X183546618Y-54064819D01*
X183546618Y-54064819D02*
X183070428Y-54064819D01*
X182165666Y-55064819D02*
X182737094Y-55064819D01*
X182451380Y-55064819D02*
X182451380Y-54064819D01*
X182451380Y-54064819D02*
X182546618Y-54207676D01*
X182546618Y-54207676D02*
X182641856Y-54302914D01*
X182641856Y-54302914D02*
X182737094Y-54350533D01*
X181546618Y-54064819D02*
X181451380Y-54064819D01*
X181451380Y-54064819D02*
X181356142Y-54112438D01*
X181356142Y-54112438D02*
X181308523Y-54160057D01*
X181308523Y-54160057D02*
X181260904Y-54255295D01*
X181260904Y-54255295D02*
X181213285Y-54445771D01*
X181213285Y-54445771D02*
X181213285Y-54683866D01*
X181213285Y-54683866D02*
X181260904Y-54874342D01*
X181260904Y-54874342D02*
X181308523Y-54969580D01*
X181308523Y-54969580D02*
X181356142Y-55017200D01*
X181356142Y-55017200D02*
X181451380Y-55064819D01*
X181451380Y-55064819D02*
X181546618Y-55064819D01*
X181546618Y-55064819D02*
X181641856Y-55017200D01*
X181641856Y-55017200D02*
X181689475Y-54969580D01*
X181689475Y-54969580D02*
X181737094Y-54874342D01*
X181737094Y-54874342D02*
X181784713Y-54683866D01*
X181784713Y-54683866D02*
X181784713Y-54445771D01*
X181784713Y-54445771D02*
X181737094Y-54255295D01*
X181737094Y-54255295D02*
X181689475Y-54160057D01*
X181689475Y-54160057D02*
X181641856Y-54112438D01*
X181641856Y-54112438D02*
X181546618Y-54064819D01*
X180879951Y-54064819D02*
X180260904Y-54064819D01*
X180260904Y-54064819D02*
X180594237Y-54445771D01*
X180594237Y-54445771D02*
X180451380Y-54445771D01*
X180451380Y-54445771D02*
X180356142Y-54493390D01*
X180356142Y-54493390D02*
X180308523Y-54541009D01*
X180308523Y-54541009D02*
X180260904Y-54636247D01*
X180260904Y-54636247D02*
X180260904Y-54874342D01*
X180260904Y-54874342D02*
X180308523Y-54969580D01*
X180308523Y-54969580D02*
X180356142Y-55017200D01*
X180356142Y-55017200D02*
X180451380Y-55064819D01*
X180451380Y-55064819D02*
X180737094Y-55064819D01*
X180737094Y-55064819D02*
X180832332Y-55017200D01*
X180832332Y-55017200D02*
X180879951Y-54969580D01*
%TO.C,U303*%
X167784819Y-21585714D02*
X168594342Y-21585714D01*
X168594342Y-21585714D02*
X168689580Y-21633333D01*
X168689580Y-21633333D02*
X168737200Y-21680952D01*
X168737200Y-21680952D02*
X168784819Y-21776190D01*
X168784819Y-21776190D02*
X168784819Y-21966666D01*
X168784819Y-21966666D02*
X168737200Y-22061904D01*
X168737200Y-22061904D02*
X168689580Y-22109523D01*
X168689580Y-22109523D02*
X168594342Y-22157142D01*
X168594342Y-22157142D02*
X167784819Y-22157142D01*
X167784819Y-22538095D02*
X167784819Y-23157142D01*
X167784819Y-23157142D02*
X168165771Y-22823809D01*
X168165771Y-22823809D02*
X168165771Y-22966666D01*
X168165771Y-22966666D02*
X168213390Y-23061904D01*
X168213390Y-23061904D02*
X168261009Y-23109523D01*
X168261009Y-23109523D02*
X168356247Y-23157142D01*
X168356247Y-23157142D02*
X168594342Y-23157142D01*
X168594342Y-23157142D02*
X168689580Y-23109523D01*
X168689580Y-23109523D02*
X168737200Y-23061904D01*
X168737200Y-23061904D02*
X168784819Y-22966666D01*
X168784819Y-22966666D02*
X168784819Y-22680952D01*
X168784819Y-22680952D02*
X168737200Y-22585714D01*
X168737200Y-22585714D02*
X168689580Y-22538095D01*
X167784819Y-23776190D02*
X167784819Y-23871428D01*
X167784819Y-23871428D02*
X167832438Y-23966666D01*
X167832438Y-23966666D02*
X167880057Y-24014285D01*
X167880057Y-24014285D02*
X167975295Y-24061904D01*
X167975295Y-24061904D02*
X168165771Y-24109523D01*
X168165771Y-24109523D02*
X168403866Y-24109523D01*
X168403866Y-24109523D02*
X168594342Y-24061904D01*
X168594342Y-24061904D02*
X168689580Y-24014285D01*
X168689580Y-24014285D02*
X168737200Y-23966666D01*
X168737200Y-23966666D02*
X168784819Y-23871428D01*
X168784819Y-23871428D02*
X168784819Y-23776190D01*
X168784819Y-23776190D02*
X168737200Y-23680952D01*
X168737200Y-23680952D02*
X168689580Y-23633333D01*
X168689580Y-23633333D02*
X168594342Y-23585714D01*
X168594342Y-23585714D02*
X168403866Y-23538095D01*
X168403866Y-23538095D02*
X168165771Y-23538095D01*
X168165771Y-23538095D02*
X167975295Y-23585714D01*
X167975295Y-23585714D02*
X167880057Y-23633333D01*
X167880057Y-23633333D02*
X167832438Y-23680952D01*
X167832438Y-23680952D02*
X167784819Y-23776190D01*
X167784819Y-24442857D02*
X167784819Y-25061904D01*
X167784819Y-25061904D02*
X168165771Y-24728571D01*
X168165771Y-24728571D02*
X168165771Y-24871428D01*
X168165771Y-24871428D02*
X168213390Y-24966666D01*
X168213390Y-24966666D02*
X168261009Y-25014285D01*
X168261009Y-25014285D02*
X168356247Y-25061904D01*
X168356247Y-25061904D02*
X168594342Y-25061904D01*
X168594342Y-25061904D02*
X168689580Y-25014285D01*
X168689580Y-25014285D02*
X168737200Y-24966666D01*
X168737200Y-24966666D02*
X168784819Y-24871428D01*
X168784819Y-24871428D02*
X168784819Y-24585714D01*
X168784819Y-24585714D02*
X168737200Y-24490476D01*
X168737200Y-24490476D02*
X168689580Y-24442857D01*
%TO.C,S601*%
X94932285Y-84735200D02*
X94789428Y-84782819D01*
X94789428Y-84782819D02*
X94551333Y-84782819D01*
X94551333Y-84782819D02*
X94456095Y-84735200D01*
X94456095Y-84735200D02*
X94408476Y-84687580D01*
X94408476Y-84687580D02*
X94360857Y-84592342D01*
X94360857Y-84592342D02*
X94360857Y-84497104D01*
X94360857Y-84497104D02*
X94408476Y-84401866D01*
X94408476Y-84401866D02*
X94456095Y-84354247D01*
X94456095Y-84354247D02*
X94551333Y-84306628D01*
X94551333Y-84306628D02*
X94741809Y-84259009D01*
X94741809Y-84259009D02*
X94837047Y-84211390D01*
X94837047Y-84211390D02*
X94884666Y-84163771D01*
X94884666Y-84163771D02*
X94932285Y-84068533D01*
X94932285Y-84068533D02*
X94932285Y-83973295D01*
X94932285Y-83973295D02*
X94884666Y-83878057D01*
X94884666Y-83878057D02*
X94837047Y-83830438D01*
X94837047Y-83830438D02*
X94741809Y-83782819D01*
X94741809Y-83782819D02*
X94503714Y-83782819D01*
X94503714Y-83782819D02*
X94360857Y-83830438D01*
X93503714Y-83782819D02*
X93694190Y-83782819D01*
X93694190Y-83782819D02*
X93789428Y-83830438D01*
X93789428Y-83830438D02*
X93837047Y-83878057D01*
X93837047Y-83878057D02*
X93932285Y-84020914D01*
X93932285Y-84020914D02*
X93979904Y-84211390D01*
X93979904Y-84211390D02*
X93979904Y-84592342D01*
X93979904Y-84592342D02*
X93932285Y-84687580D01*
X93932285Y-84687580D02*
X93884666Y-84735200D01*
X93884666Y-84735200D02*
X93789428Y-84782819D01*
X93789428Y-84782819D02*
X93598952Y-84782819D01*
X93598952Y-84782819D02*
X93503714Y-84735200D01*
X93503714Y-84735200D02*
X93456095Y-84687580D01*
X93456095Y-84687580D02*
X93408476Y-84592342D01*
X93408476Y-84592342D02*
X93408476Y-84354247D01*
X93408476Y-84354247D02*
X93456095Y-84259009D01*
X93456095Y-84259009D02*
X93503714Y-84211390D01*
X93503714Y-84211390D02*
X93598952Y-84163771D01*
X93598952Y-84163771D02*
X93789428Y-84163771D01*
X93789428Y-84163771D02*
X93884666Y-84211390D01*
X93884666Y-84211390D02*
X93932285Y-84259009D01*
X93932285Y-84259009D02*
X93979904Y-84354247D01*
X92789428Y-83782819D02*
X92694190Y-83782819D01*
X92694190Y-83782819D02*
X92598952Y-83830438D01*
X92598952Y-83830438D02*
X92551333Y-83878057D01*
X92551333Y-83878057D02*
X92503714Y-83973295D01*
X92503714Y-83973295D02*
X92456095Y-84163771D01*
X92456095Y-84163771D02*
X92456095Y-84401866D01*
X92456095Y-84401866D02*
X92503714Y-84592342D01*
X92503714Y-84592342D02*
X92551333Y-84687580D01*
X92551333Y-84687580D02*
X92598952Y-84735200D01*
X92598952Y-84735200D02*
X92694190Y-84782819D01*
X92694190Y-84782819D02*
X92789428Y-84782819D01*
X92789428Y-84782819D02*
X92884666Y-84735200D01*
X92884666Y-84735200D02*
X92932285Y-84687580D01*
X92932285Y-84687580D02*
X92979904Y-84592342D01*
X92979904Y-84592342D02*
X93027523Y-84401866D01*
X93027523Y-84401866D02*
X93027523Y-84163771D01*
X93027523Y-84163771D02*
X92979904Y-83973295D01*
X92979904Y-83973295D02*
X92932285Y-83878057D01*
X92932285Y-83878057D02*
X92884666Y-83830438D01*
X92884666Y-83830438D02*
X92789428Y-83782819D01*
X91503714Y-84782819D02*
X92075142Y-84782819D01*
X91789428Y-84782819D02*
X91789428Y-83782819D01*
X91789428Y-83782819D02*
X91884666Y-83925676D01*
X91884666Y-83925676D02*
X91979904Y-84020914D01*
X91979904Y-84020914D02*
X92075142Y-84068533D01*
%TO.C,U302*%
X168211285Y-19520819D02*
X168211285Y-20330342D01*
X168211285Y-20330342D02*
X168163666Y-20425580D01*
X168163666Y-20425580D02*
X168116047Y-20473200D01*
X168116047Y-20473200D02*
X168020809Y-20520819D01*
X168020809Y-20520819D02*
X167830333Y-20520819D01*
X167830333Y-20520819D02*
X167735095Y-20473200D01*
X167735095Y-20473200D02*
X167687476Y-20425580D01*
X167687476Y-20425580D02*
X167639857Y-20330342D01*
X167639857Y-20330342D02*
X167639857Y-19520819D01*
X167258904Y-19520819D02*
X166639857Y-19520819D01*
X166639857Y-19520819D02*
X166973190Y-19901771D01*
X166973190Y-19901771D02*
X166830333Y-19901771D01*
X166830333Y-19901771D02*
X166735095Y-19949390D01*
X166735095Y-19949390D02*
X166687476Y-19997009D01*
X166687476Y-19997009D02*
X166639857Y-20092247D01*
X166639857Y-20092247D02*
X166639857Y-20330342D01*
X166639857Y-20330342D02*
X166687476Y-20425580D01*
X166687476Y-20425580D02*
X166735095Y-20473200D01*
X166735095Y-20473200D02*
X166830333Y-20520819D01*
X166830333Y-20520819D02*
X167116047Y-20520819D01*
X167116047Y-20520819D02*
X167211285Y-20473200D01*
X167211285Y-20473200D02*
X167258904Y-20425580D01*
X166020809Y-19520819D02*
X165925571Y-19520819D01*
X165925571Y-19520819D02*
X165830333Y-19568438D01*
X165830333Y-19568438D02*
X165782714Y-19616057D01*
X165782714Y-19616057D02*
X165735095Y-19711295D01*
X165735095Y-19711295D02*
X165687476Y-19901771D01*
X165687476Y-19901771D02*
X165687476Y-20139866D01*
X165687476Y-20139866D02*
X165735095Y-20330342D01*
X165735095Y-20330342D02*
X165782714Y-20425580D01*
X165782714Y-20425580D02*
X165830333Y-20473200D01*
X165830333Y-20473200D02*
X165925571Y-20520819D01*
X165925571Y-20520819D02*
X166020809Y-20520819D01*
X166020809Y-20520819D02*
X166116047Y-20473200D01*
X166116047Y-20473200D02*
X166163666Y-20425580D01*
X166163666Y-20425580D02*
X166211285Y-20330342D01*
X166211285Y-20330342D02*
X166258904Y-20139866D01*
X166258904Y-20139866D02*
X166258904Y-19901771D01*
X166258904Y-19901771D02*
X166211285Y-19711295D01*
X166211285Y-19711295D02*
X166163666Y-19616057D01*
X166163666Y-19616057D02*
X166116047Y-19568438D01*
X166116047Y-19568438D02*
X166020809Y-19520819D01*
X165306523Y-19616057D02*
X165258904Y-19568438D01*
X165258904Y-19568438D02*
X165163666Y-19520819D01*
X165163666Y-19520819D02*
X164925571Y-19520819D01*
X164925571Y-19520819D02*
X164830333Y-19568438D01*
X164830333Y-19568438D02*
X164782714Y-19616057D01*
X164782714Y-19616057D02*
X164735095Y-19711295D01*
X164735095Y-19711295D02*
X164735095Y-19806533D01*
X164735095Y-19806533D02*
X164782714Y-19949390D01*
X164782714Y-19949390D02*
X165354142Y-20520819D01*
X165354142Y-20520819D02*
X164735095Y-20520819D01*
X130404999Y-24934104D02*
X129928809Y-24934104D01*
X130500237Y-25219819D02*
X130166904Y-24219819D01*
X130166904Y-24219819D02*
X129833571Y-25219819D01*
X127976427Y-25219819D02*
X127976427Y-24219819D01*
X127404999Y-25219819D02*
X127833570Y-24648390D01*
X127404999Y-24219819D02*
X127976427Y-24791247D01*
%TO.C,SW101*%
X76453713Y-96165200D02*
X76310856Y-96212819D01*
X76310856Y-96212819D02*
X76072761Y-96212819D01*
X76072761Y-96212819D02*
X75977523Y-96165200D01*
X75977523Y-96165200D02*
X75929904Y-96117580D01*
X75929904Y-96117580D02*
X75882285Y-96022342D01*
X75882285Y-96022342D02*
X75882285Y-95927104D01*
X75882285Y-95927104D02*
X75929904Y-95831866D01*
X75929904Y-95831866D02*
X75977523Y-95784247D01*
X75977523Y-95784247D02*
X76072761Y-95736628D01*
X76072761Y-95736628D02*
X76263237Y-95689009D01*
X76263237Y-95689009D02*
X76358475Y-95641390D01*
X76358475Y-95641390D02*
X76406094Y-95593771D01*
X76406094Y-95593771D02*
X76453713Y-95498533D01*
X76453713Y-95498533D02*
X76453713Y-95403295D01*
X76453713Y-95403295D02*
X76406094Y-95308057D01*
X76406094Y-95308057D02*
X76358475Y-95260438D01*
X76358475Y-95260438D02*
X76263237Y-95212819D01*
X76263237Y-95212819D02*
X76025142Y-95212819D01*
X76025142Y-95212819D02*
X75882285Y-95260438D01*
X75548951Y-95212819D02*
X75310856Y-96212819D01*
X75310856Y-96212819D02*
X75120380Y-95498533D01*
X75120380Y-95498533D02*
X74929904Y-96212819D01*
X74929904Y-96212819D02*
X74691809Y-95212819D01*
X73787047Y-96212819D02*
X74358475Y-96212819D01*
X74072761Y-96212819D02*
X74072761Y-95212819D01*
X74072761Y-95212819D02*
X74167999Y-95355676D01*
X74167999Y-95355676D02*
X74263237Y-95450914D01*
X74263237Y-95450914D02*
X74358475Y-95498533D01*
X73167999Y-95212819D02*
X73072761Y-95212819D01*
X73072761Y-95212819D02*
X72977523Y-95260438D01*
X72977523Y-95260438D02*
X72929904Y-95308057D01*
X72929904Y-95308057D02*
X72882285Y-95403295D01*
X72882285Y-95403295D02*
X72834666Y-95593771D01*
X72834666Y-95593771D02*
X72834666Y-95831866D01*
X72834666Y-95831866D02*
X72882285Y-96022342D01*
X72882285Y-96022342D02*
X72929904Y-96117580D01*
X72929904Y-96117580D02*
X72977523Y-96165200D01*
X72977523Y-96165200D02*
X73072761Y-96212819D01*
X73072761Y-96212819D02*
X73167999Y-96212819D01*
X73167999Y-96212819D02*
X73263237Y-96165200D01*
X73263237Y-96165200D02*
X73310856Y-96117580D01*
X73310856Y-96117580D02*
X73358475Y-96022342D01*
X73358475Y-96022342D02*
X73406094Y-95831866D01*
X73406094Y-95831866D02*
X73406094Y-95593771D01*
X73406094Y-95593771D02*
X73358475Y-95403295D01*
X73358475Y-95403295D02*
X73310856Y-95308057D01*
X73310856Y-95308057D02*
X73263237Y-95260438D01*
X73263237Y-95260438D02*
X73167999Y-95212819D01*
X71882285Y-96212819D02*
X72453713Y-96212819D01*
X72167999Y-96212819D02*
X72167999Y-95212819D01*
X72167999Y-95212819D02*
X72263237Y-95355676D01*
X72263237Y-95355676D02*
X72358475Y-95450914D01*
X72358475Y-95450914D02*
X72453713Y-95498533D01*
%TO.C,MF602*%
X67764819Y-58515524D02*
X66764819Y-58515524D01*
X66764819Y-58515524D02*
X67479104Y-58848857D01*
X67479104Y-58848857D02*
X66764819Y-59182190D01*
X66764819Y-59182190D02*
X67764819Y-59182190D01*
X67241009Y-59991714D02*
X67241009Y-59658381D01*
X67764819Y-59658381D02*
X66764819Y-59658381D01*
X66764819Y-59658381D02*
X66764819Y-60134571D01*
X66764819Y-60944095D02*
X66764819Y-60753619D01*
X66764819Y-60753619D02*
X66812438Y-60658381D01*
X66812438Y-60658381D02*
X66860057Y-60610762D01*
X66860057Y-60610762D02*
X67002914Y-60515524D01*
X67002914Y-60515524D02*
X67193390Y-60467905D01*
X67193390Y-60467905D02*
X67574342Y-60467905D01*
X67574342Y-60467905D02*
X67669580Y-60515524D01*
X67669580Y-60515524D02*
X67717200Y-60563143D01*
X67717200Y-60563143D02*
X67764819Y-60658381D01*
X67764819Y-60658381D02*
X67764819Y-60848857D01*
X67764819Y-60848857D02*
X67717200Y-60944095D01*
X67717200Y-60944095D02*
X67669580Y-60991714D01*
X67669580Y-60991714D02*
X67574342Y-61039333D01*
X67574342Y-61039333D02*
X67336247Y-61039333D01*
X67336247Y-61039333D02*
X67241009Y-60991714D01*
X67241009Y-60991714D02*
X67193390Y-60944095D01*
X67193390Y-60944095D02*
X67145771Y-60848857D01*
X67145771Y-60848857D02*
X67145771Y-60658381D01*
X67145771Y-60658381D02*
X67193390Y-60563143D01*
X67193390Y-60563143D02*
X67241009Y-60515524D01*
X67241009Y-60515524D02*
X67336247Y-60467905D01*
X66764819Y-61658381D02*
X66764819Y-61753619D01*
X66764819Y-61753619D02*
X66812438Y-61848857D01*
X66812438Y-61848857D02*
X66860057Y-61896476D01*
X66860057Y-61896476D02*
X66955295Y-61944095D01*
X66955295Y-61944095D02*
X67145771Y-61991714D01*
X67145771Y-61991714D02*
X67383866Y-61991714D01*
X67383866Y-61991714D02*
X67574342Y-61944095D01*
X67574342Y-61944095D02*
X67669580Y-61896476D01*
X67669580Y-61896476D02*
X67717200Y-61848857D01*
X67717200Y-61848857D02*
X67764819Y-61753619D01*
X67764819Y-61753619D02*
X67764819Y-61658381D01*
X67764819Y-61658381D02*
X67717200Y-61563143D01*
X67717200Y-61563143D02*
X67669580Y-61515524D01*
X67669580Y-61515524D02*
X67574342Y-61467905D01*
X67574342Y-61467905D02*
X67383866Y-61420286D01*
X67383866Y-61420286D02*
X67145771Y-61420286D01*
X67145771Y-61420286D02*
X66955295Y-61467905D01*
X66955295Y-61467905D02*
X66860057Y-61515524D01*
X66860057Y-61515524D02*
X66812438Y-61563143D01*
X66812438Y-61563143D02*
X66764819Y-61658381D01*
X66860057Y-62372667D02*
X66812438Y-62420286D01*
X66812438Y-62420286D02*
X66764819Y-62515524D01*
X66764819Y-62515524D02*
X66764819Y-62753619D01*
X66764819Y-62753619D02*
X66812438Y-62848857D01*
X66812438Y-62848857D02*
X66860057Y-62896476D01*
X66860057Y-62896476D02*
X66955295Y-62944095D01*
X66955295Y-62944095D02*
X67050533Y-62944095D01*
X67050533Y-62944095D02*
X67193390Y-62896476D01*
X67193390Y-62896476D02*
X67764819Y-62325048D01*
X67764819Y-62325048D02*
X67764819Y-62944095D01*
D13*
%TO.C,D202*%
X72720000Y-63570000D02*
X69510000Y-63570000D01*
X72727211Y-63571718D02*
G75*
G03*
X69510000Y-63569999I-1607211J2611718D01*
G01*
%TO.C,D203*%
X72720000Y-50870000D02*
X69510000Y-50870000D01*
X72727211Y-50871718D02*
G75*
G03*
X69510000Y-50869999I-1607211J2611718D01*
G01*
%TO.C,D201*%
X72720000Y-76270000D02*
X69510000Y-76270000D01*
X72727211Y-76271718D02*
G75*
G03*
X69510000Y-76269999I-1607211J2611718D01*
G01*
%TO.C,D204*%
X72720000Y-38170000D02*
X69510000Y-38170000D01*
X72727211Y-38171718D02*
G75*
G03*
X69510000Y-38169999I-1607211J2611718D01*
G01*
%TO.C,D205*%
X72720000Y-25470000D02*
X69510000Y-25470000D01*
X72727211Y-25471718D02*
G75*
G03*
X69510000Y-25469999I-1607211J2611718D01*
G01*
%TO.C,D105*%
X190570000Y-53010000D02*
X190570000Y-56220000D01*
X190571718Y-53002789D02*
G75*
G03*
X190569999Y-56220000I-2611718J-1607211D01*
G01*
%TO.C,MF605*%
X71770000Y-21590000D02*
X71770000Y-19890000D01*
X70470000Y-21590000D02*
X70470000Y-19890000D01*
X71770000Y-24130000D02*
X71770000Y-25840000D01*
X70470000Y-24130000D02*
X70470000Y-25840000D01*
X71770000Y-25839999D02*
G75*
G03*
X71770000Y-19890001I-695845J2974999D01*
G01*
X70470000Y-21590000D02*
G75*
G03*
X71770000Y-21590000I650000J0D01*
G01*
X71770000Y-24130000D02*
G75*
G03*
X70470000Y-24130000I-650000J0D01*
G01*
X70470000Y-19890001D02*
G75*
G03*
X70470000Y-25839999I695845J-2974999D01*
G01*
%TO.C,MF601*%
X71770000Y-72390000D02*
X71770000Y-70690000D01*
X70470000Y-72390000D02*
X70470000Y-70690000D01*
X71770000Y-74930000D02*
X71770000Y-76640000D01*
X70470000Y-74930000D02*
X70470000Y-76640000D01*
X71770000Y-76639999D02*
G75*
G03*
X71770000Y-70690001I-695845J2974999D01*
G01*
X70470000Y-72390000D02*
G75*
G03*
X71770000Y-72390000I650000J0D01*
G01*
X71770000Y-74930000D02*
G75*
G03*
X70470000Y-74930000I-650000J0D01*
G01*
X70470000Y-70690001D02*
G75*
G03*
X70470000Y-76639999I695845J-2974999D01*
G01*
D10*
%TO.C,RV301*%
X180535000Y-46175000D02*
X180535000Y-36405000D01*
X190305000Y-46175000D02*
X180535000Y-46175000D01*
X190305000Y-46175000D02*
X190305000Y-36405000D01*
D13*
X183860000Y-42166000D02*
X186979000Y-42165000D01*
D10*
X190305000Y-36405000D02*
X180535000Y-36405000D01*
D13*
X186994500Y-42165500D02*
G75*
G03*
X186994500Y-42165500I-1575000J0D01*
G01*
%TO.C,MF604*%
X71770000Y-34290000D02*
X71770000Y-32590000D01*
X70470000Y-34290000D02*
X70470000Y-32590000D01*
X71770000Y-36830000D02*
X71770000Y-38540000D01*
X70470000Y-36830000D02*
X70470000Y-38540000D01*
X71770000Y-38539999D02*
G75*
G03*
X71770000Y-32590001I-695845J2974999D01*
G01*
X70470000Y-34290000D02*
G75*
G03*
X71770000Y-34290000I650000J0D01*
G01*
X71770000Y-36830000D02*
G75*
G03*
X70470000Y-36830000I-650000J0D01*
G01*
X70470000Y-32590001D02*
G75*
G03*
X70470000Y-38539999I695845J-2974999D01*
G01*
%TO.C,MF603*%
X71770000Y-46990000D02*
X71770000Y-45290000D01*
X70470000Y-46990000D02*
X70470000Y-45290000D01*
X71770000Y-49530000D02*
X71770000Y-51240000D01*
X70470000Y-49530000D02*
X70470000Y-51240000D01*
X71770000Y-51239999D02*
G75*
G03*
X71770000Y-45290001I-695845J2974999D01*
G01*
X70470000Y-46990000D02*
G75*
G03*
X71770000Y-46990000I650000J0D01*
G01*
X71770000Y-49530000D02*
G75*
G03*
X70470000Y-49530000I-650000J0D01*
G01*
X70470000Y-45290001D02*
G75*
G03*
X70470000Y-51239999I695845J-2974999D01*
G01*
%TO.C,MF103*%
X186690000Y-53960000D02*
X184990000Y-53960000D01*
X186690000Y-55260000D02*
X184990000Y-55260000D01*
X189230000Y-53960000D02*
X190940000Y-53960000D01*
X189230000Y-55260000D02*
X190940000Y-55260000D01*
X190939999Y-53960000D02*
G75*
G03*
X184990001Y-53960000I-2974999J-695845D01*
G01*
X186690000Y-55260000D02*
G75*
G03*
X186690000Y-53960000I0J650000D01*
G01*
X189230000Y-53960000D02*
G75*
G03*
X189230000Y-55260000I0J-650000D01*
G01*
X184990001Y-55260000D02*
G75*
G03*
X190939999Y-55260000I2974999J695845D01*
G01*
D10*
%TO.C,U303*%
X126570000Y-24630000D02*
X126570000Y-21970000D01*
X164730000Y-24630000D02*
X126570000Y-24630000D01*
X164730000Y-24630000D02*
X164730000Y-21970000D01*
X166000000Y-24630000D02*
X167330000Y-24630000D01*
X167330000Y-24630000D02*
X167330000Y-23300000D01*
X164730000Y-21970000D02*
X126570000Y-21970000D01*
%TO.C,S601*%
X93880000Y-97550000D02*
X93880000Y-94830000D01*
X93880000Y-92970000D02*
X93880000Y-89830000D01*
X93880000Y-87970000D02*
X93880000Y-85250000D01*
X93880000Y-85250000D02*
X81580000Y-85250000D01*
X81580000Y-97550000D02*
X93880000Y-97550000D01*
X81580000Y-94830000D02*
X81580000Y-97550000D01*
X81580000Y-89830000D02*
X81580000Y-92970000D01*
X81580000Y-85250000D02*
X81580000Y-87970000D01*
X92209050Y-91440000D02*
G75*
G03*
X92209050Y-91440000I-4579050J0D01*
G01*
%TO.C,U302*%
X176000000Y-80800000D02*
X78000000Y-80800000D01*
X176000000Y-71800000D02*
X78000000Y-71800000D01*
X176000000Y-29800000D02*
X176000000Y-71800000D01*
X176000000Y-20800000D02*
X176000000Y-80800000D01*
X165000000Y-63800000D02*
X89000000Y-63800000D01*
X165000000Y-37800000D02*
X165000000Y-63800000D01*
X128000000Y-20800009D02*
X127000000Y-21800007D01*
X127000000Y-21800007D02*
X126000000Y-20800009D01*
X95000000Y-80800000D02*
X157000000Y-80800000D01*
X89000000Y-63800000D02*
X89000000Y-37800000D01*
X89000000Y-37800000D02*
X165000000Y-37800000D01*
X78000000Y-80800000D02*
X78000000Y-20800000D01*
X78000000Y-71800000D02*
X78000000Y-29800000D01*
X78000000Y-29800000D02*
X176000000Y-29800000D01*
X78000000Y-20800000D02*
X176000000Y-20800000D01*
%TO.C,SW101*%
X75220000Y-94164000D02*
X75220000Y-93564000D01*
X74920000Y-93864000D02*
X75220000Y-94164000D01*
X75220000Y-93564000D02*
X74920000Y-93864000D01*
X64820000Y-93064000D02*
X67620000Y-93064000D01*
X77420000Y-93064000D02*
X74920000Y-93064000D01*
X77420000Y-88264000D02*
X77420000Y-93064000D01*
X64820000Y-88164000D02*
X64820000Y-93064000D01*
X71120000Y-86864000D02*
X71120000Y-85864000D01*
X71620000Y-86364000D02*
X70620000Y-86364000D01*
X77420000Y-84564000D02*
X77420000Y-79664000D01*
X64820000Y-79664000D02*
X64820000Y-84564000D01*
X67420000Y-79664000D02*
X64820000Y-79664000D01*
X72420000Y-79664000D02*
X69820000Y-79664000D01*
X77420000Y-79664000D02*
X74820000Y-79664000D01*
X74120000Y-86364000D02*
G75*
G03*
X74120000Y-86364000I-3000000J0D01*
G01*
D13*
%TO.C,MF602*%
X71770000Y-59817000D02*
X71770000Y-58117000D01*
X70470000Y-59817000D02*
X70470000Y-58117000D01*
X71770000Y-62357000D02*
X71770000Y-64067000D01*
X70470000Y-62357000D02*
X70470000Y-64067000D01*
X71770000Y-64066999D02*
G75*
G03*
X71770000Y-58117001I-695845J2974999D01*
G01*
X70470000Y-59817000D02*
G75*
G03*
X71770000Y-59817000I650000J0D01*
G01*
X71770000Y-62357000D02*
G75*
G03*
X70470000Y-62357000I-650000J0D01*
G01*
X70470000Y-58117001D02*
G75*
G03*
X70470000Y-64066999I695845J-2974999D01*
G01*
%TD*%
D14*
X55880000Y-17780000D02*
X55880000Y-101600000D01*
X55880000Y-101600000D02*
X193040000Y-101600000D01*
X55880000Y-17780000D02*
X84074000Y-17780000D01*
X86106000Y-24257000D02*
X124764800Y-24257000D01*
X126796800Y-17780000D02*
X193040000Y-17780000D01*
X125780800Y-18796000D02*
X125780800Y-23241000D01*
X126796800Y-17780000D02*
G75*
G03*
X125780800Y-18796000I0J-1016000D01*
G01*
X193040000Y-101600000D02*
X193040000Y-17780000D01*
X85090000Y-23241000D02*
G75*
G03*
X86106000Y-24257000I1016000J0D01*
G01*
X124764800Y-24257000D02*
G75*
G03*
X125780800Y-23241000I0J1016000D01*
G01*
X85090000Y-18796000D02*
X85090000Y-23241000D01*
X85090000Y-18796000D02*
G75*
G03*
X84074000Y-17780000I-1016000J0D01*
G01*
D15*
%TO.C,T102*%
X57980000Y-93218000D02*
G75*
G03*
X57980000Y-93218000I-576000J0D01*
G01*
%TO.C,T103*%
X185361000Y-27305000D02*
G75*
G03*
X185361000Y-27305000I-576000J0D01*
G01*
%TO.C,T101*%
X65854000Y-19050000D02*
G75*
G03*
X65854000Y-19050000I-576000J0D01*
G01*
%TD*%
M02*
